<svg width="168" height="28" viewBox="0 0 168 28" fill="none" xmlns="http://www.w3.org/2000/svg">
<mask id="path-1-inside-1_162_39" fill="white">
<path d="M0 0H168V15H0V0Z"/>
</mask>
<path d="M168 15V14H0V15V16H168V15Z" fill="#D4AF37" mask="url(#path-1-inside-1_162_39)"/>
<path d="M0.222168 12V11.7651H0.545898C0.909831 11.7651 1.16797 11.6488 1.32031 11.416C1.41341 11.2764 1.45996 10.9632 1.45996 10.4766V4.91602C1.45996 4.37858 1.40072 4.04215 1.28223 3.90674C1.11719 3.72054 0.871745 3.62744 0.545898 3.62744H0.222168V3.39258H3.72607C5.01253 3.39258 5.99007 3.53857 6.65869 3.83057C7.33154 4.12256 7.87109 4.60921 8.27734 5.29053C8.68783 5.97184 8.89307 6.75895 8.89307 7.65186C8.89307 8.84945 8.52913 9.85026 7.80127 10.6543C6.98454 11.5514 5.7404 12 4.06885 12H0.222168ZM2.67871 11.3779C3.21615 11.4964 3.66683 11.5557 4.03076 11.5557C5.01253 11.5557 5.82715 11.2108 6.47461 10.521C7.12207 9.83122 7.4458 8.896 7.4458 7.71533C7.4458 6.5262 7.12207 5.58887 6.47461 4.90332C5.82715 4.21777 4.99561 3.875 3.97998 3.875C3.59912 3.875 3.16536 3.93636 2.67871 4.05908V11.3779ZM15.2339 12L11.9077 4.75732V10.5083C11.9077 11.0373 11.9648 11.3674 12.0791 11.4985C12.2357 11.6763 12.4832 11.7651 12.8218 11.7651H13.1264V12H10.1304V11.7651H10.435C10.799 11.7651 11.0571 11.6551 11.2095 11.4351C11.3026 11.2996 11.3491 10.9907 11.3491 10.5083V4.88428C11.3491 4.50342 11.3068 4.22835 11.2221 4.05908C11.1629 3.93636 11.0529 3.8348 10.8921 3.75439C10.7355 3.66976 10.4816 3.62744 10.1304 3.62744V3.39258H12.5679L15.6909 10.1274L18.7632 3.39258H21.2007V3.62744H20.9023C20.5342 3.62744 20.2739 3.73747 20.1216 3.95752C20.0285 4.09294 19.9819 4.40186 19.9819 4.88428V10.5083C19.9819 11.0373 20.0412 11.3674 20.1596 11.4985C20.3162 11.6763 20.5638 11.7651 20.9023 11.7651H21.2007V12H17.5444V11.7651H17.8491C18.2173 11.7651 18.4754 11.6551 18.6235 11.4351C18.7166 11.2996 18.7632 10.9907 18.7632 10.5083V4.75732L15.4433 12H15.2339ZM28.1953 3.39258H31.1977V3.62744H31.0327C30.9227 3.62744 30.7618 3.67611 30.5503 3.77344C30.3387 3.87077 30.1461 4.01042 29.9726 4.19238C29.7991 4.37435 29.5854 4.67057 29.3315 5.08105L27.2558 8.3501V10.5083C27.2558 11.0373 27.3151 11.3674 27.4336 11.4985C27.5944 11.6763 27.8483 11.7651 28.1953 11.7651H28.4746V12H24.8183V11.7651H25.123C25.4869 11.7651 25.7451 11.6551 25.8974 11.4351C25.9905 11.2996 26.0371 10.9907 26.0371 10.5083V8.4707L23.6757 4.86523C23.3964 4.44206 23.206 4.17757 23.1045 4.07178C23.0071 3.96598 22.8019 3.83903 22.4887 3.69092C22.4041 3.6486 22.2814 3.62744 22.1206 3.62744V3.39258H25.8022V3.62744H25.6118C25.4129 3.62744 25.2288 3.67399 25.0595 3.76709C24.8945 3.86019 24.812 3.99984 24.812 4.18604C24.812 4.33838 24.941 4.61344 25.1992 5.01123L26.9956 7.78516L28.684 5.13184C28.938 4.73405 29.0649 4.43783 29.0649 4.24316C29.0649 4.12467 29.0332 4.01888 28.9697 3.92578C28.9104 3.83268 28.8237 3.76074 28.7094 3.70996C28.5952 3.65495 28.4238 3.62744 28.1953 3.62744V3.39258ZM39.4365 3.39258L39.5317 5.41113H39.2905C39.2439 5.05566 39.1804 4.80176 39.1 4.64941C38.9689 4.40397 38.7932 4.22412 38.5732 4.10986C38.3574 3.99137 38.0717 3.93213 37.7162 3.93213H36.5038V10.5083C36.5038 11.0373 36.561 11.3674 36.6752 11.4985C36.836 11.6763 37.0836 11.7651 37.4179 11.7651H37.7162V12H34.0663V11.7651H34.371C34.735 11.7651 34.9931 11.6551 35.1454 11.4351C35.2385 11.2996 35.2851 10.9907 35.2851 10.5083V3.93213H34.2504C33.8484 3.93213 33.5628 3.96175 33.3935 4.021C33.1734 4.1014 32.9851 4.25586 32.8286 4.48438C32.672 4.71289 32.5789 5.02181 32.5493 5.41113H32.308L32.4096 3.39258H39.4365ZM49.1669 12H46.8691L43.9555 7.97559C43.7397 7.98405 43.5641 7.98828 43.4286 7.98828C43.3736 7.98828 43.3144 7.98828 43.2509 7.98828C43.1874 7.98405 43.1218 7.97982 43.0541 7.97559V10.4766C43.0541 11.0182 43.1134 11.3547 43.2319 11.4858C43.3927 11.672 43.6339 11.7651 43.9555 11.7651H44.2919V12H40.6039V11.7651H40.9277C41.2916 11.7651 41.5518 11.6466 41.7084 11.4097C41.7973 11.2785 41.8417 10.9674 41.8417 10.4766V4.91602C41.8417 4.37435 41.7825 4.03792 41.664 3.90674C41.4989 3.72054 41.2535 3.62744 40.9277 3.62744H40.6039V3.39258H43.7397C44.6537 3.39258 45.3266 3.46029 45.7582 3.5957C46.1941 3.72689 46.5623 3.97233 46.8627 4.33203C47.1674 4.6875 47.3197 5.11279 47.3197 5.60791C47.3197 6.13688 47.1462 6.59603 46.7992 6.98535C46.4565 7.37467 45.9233 7.64974 45.1996 7.81055L46.977 10.2798C47.3832 10.8468 47.7323 11.2235 48.0243 11.4097C48.3163 11.5959 48.6972 11.7144 49.1669 11.7651V12ZM43.0541 7.57568C43.1345 7.57568 43.2044 7.5778 43.2636 7.58203C43.3228 7.58203 43.3715 7.58203 43.4096 7.58203C44.2306 7.58203 44.8484 7.4043 45.2631 7.04883C45.6821 6.69336 45.8915 6.24056 45.8915 5.69043C45.8915 5.15299 45.7223 4.71712 45.3837 4.38281C45.0494 4.04427 44.6051 3.875 44.0507 3.875C43.8053 3.875 43.4731 3.9152 43.0541 3.99561V7.57568ZM54.327 3.1958C55.4442 3.1958 56.4112 3.62109 57.2279 4.47168C58.0489 5.31803 58.4594 6.37598 58.4594 7.64551C58.4594 8.95312 58.0468 10.0386 57.2216 10.9019C56.3964 11.7651 55.3977 12.1968 54.2255 12.1968C53.0406 12.1968 52.044 11.7757 51.2357 10.9336C50.4317 10.0915 50.0297 9.00179 50.0297 7.66455C50.0297 6.29769 50.4952 5.18262 51.4262 4.31934C52.2344 3.57031 53.2014 3.1958 54.327 3.1958ZM54.2064 3.65918C53.4363 3.65918 52.8184 3.94482 52.3529 4.51611C51.7732 5.22705 51.4833 6.26807 51.4833 7.63916C51.4833 9.04411 51.7838 10.1253 52.3847 10.8828C52.8459 11.4583 53.4553 11.7461 54.2128 11.7461C55.0211 11.7461 55.6876 11.4308 56.2123 10.8003C56.7413 10.1698 57.0058 9.17529 57.0058 7.81689C57.0058 6.34424 56.7159 5.24609 56.1361 4.52246C55.6706 3.94694 55.0274 3.65918 54.2064 3.65918ZM68.9701 3.39258H71.9725V3.62744H71.8075C71.6975 3.62744 71.5366 3.67611 71.3251 3.77344C71.1135 3.87077 70.9209 4.01042 70.7474 4.19238C70.5739 4.37435 70.3602 4.67057 70.1063 5.08105L68.0306 8.3501V10.5083C68.0306 11.0373 68.0899 11.3674 68.2084 11.4985C68.3692 11.6763 68.6231 11.7651 68.9701 11.7651H69.2494V12H65.5931V11.7651H65.8978C66.2617 11.7651 66.5199 11.6551 66.6722 11.4351C66.7653 11.2996 66.8119 10.9907 66.8119 10.5083V8.4707L64.4505 4.86523C64.1712 4.44206 63.9808 4.17757 63.8793 4.07178C63.7819 3.96598 63.5767 3.83903 63.2635 3.69092C63.1789 3.6486 63.0562 3.62744 62.8954 3.62744V3.39258H66.577V3.62744H66.3866C66.1877 3.62744 66.0036 3.67399 65.8343 3.76709C65.6693 3.86019 65.5868 3.99984 65.5868 4.18604C65.5868 4.33838 65.7158 4.61344 65.974 5.01123L67.7704 7.78516L69.4588 5.13184C69.7128 4.73405 69.8397 4.43783 69.8397 4.24316C69.8397 4.12467 69.808 4.01888 69.7445 3.92578C69.6852 3.83268 69.5985 3.76074 69.4842 3.70996C69.37 3.65495 69.1986 3.62744 68.9701 3.62744V3.39258ZM77.2025 9.11816H73.87L73.286 10.4766C73.1421 10.8109 73.0702 11.0605 73.0702 11.2256C73.0702 11.3568 73.1315 11.4731 73.2542 11.5747C73.3812 11.672 73.652 11.7355 74.0667 11.7651V12H71.3563V11.7651C71.716 11.7017 71.9487 11.6191 72.0545 11.5176C72.2704 11.3145 72.5095 10.9019 72.7718 10.2798L75.7997 3.1958H76.0218L79.0179 10.356C79.2591 10.9315 79.4771 11.306 79.6717 11.4795C79.8706 11.6488 80.1457 11.744 80.4969 11.7651V12H77.1009V11.7651C77.4437 11.7482 77.6743 11.6911 77.7928 11.5938C77.9155 11.4964 77.9769 11.3779 77.9769 11.2383C77.9769 11.0521 77.8923 10.758 77.723 10.356L77.2025 9.11816ZM77.0247 8.64844L75.5648 5.16992L74.0667 8.64844H77.0247ZM85.054 7.22656L88.2279 10.3813C88.7484 10.9019 89.1927 11.2573 89.5609 11.4478C89.929 11.634 90.2972 11.7397 90.6654 11.7651V12H86.5711V11.7651C86.8166 11.7651 86.9922 11.7249 87.098 11.6445C87.208 11.5599 87.263 11.4668 87.263 11.3652C87.263 11.2637 87.2418 11.1727 87.1995 11.0923C87.1614 11.0119 87.0303 10.8617 86.806 10.6416L83.8353 7.70264V10.4766C83.8353 10.9124 83.8628 11.2002 83.9178 11.3398C83.9601 11.4456 84.049 11.5366 84.1844 11.6128C84.3664 11.7144 84.5589 11.7651 84.762 11.7651H85.054V12H81.3851V11.7651H81.6898C82.0452 11.7651 82.3034 11.6615 82.4642 11.4541C82.5657 11.3187 82.6165 10.9928 82.6165 10.4766V4.91602C82.6165 4.48014 82.589 4.19027 82.534 4.04639C82.4917 3.94482 82.4049 3.85596 82.2738 3.77979C82.0876 3.67822 81.8929 3.62744 81.6898 3.62744H81.3851V3.39258H85.054V3.62744H84.762C84.5631 3.62744 84.3706 3.67611 84.1844 3.77344C84.0532 3.84115 83.9622 3.94271 83.9114 4.07812C83.8607 4.21354 83.8353 4.49284 83.8353 4.91602V7.55029C83.9199 7.46989 84.2098 7.20117 84.7049 6.74414C85.9617 5.5931 86.7213 4.82503 86.9837 4.43994C87.098 4.27067 87.1551 4.12256 87.1551 3.99561C87.1551 3.89827 87.1107 3.81364 87.0218 3.7417C86.9329 3.66553 86.7827 3.62744 86.5711 3.62744H86.3743V3.39258H89.5355V3.62744C89.3493 3.63167 89.18 3.65706 89.0277 3.70361C88.8753 3.75016 88.6891 3.84115 88.4691 3.97656C88.249 4.10775 87.9782 4.32145 87.6566 4.61768C87.5635 4.70231 87.1339 5.13607 86.368 5.91895L85.054 7.22656ZM97.2854 3.62744V3.39258H100.332V3.62744H100.009C99.67 3.62744 99.4098 3.76921 99.2278 4.05273C99.139 4.18392 99.0945 4.48861 99.0945 4.9668V8.45801C99.0945 9.32129 99.0078 9.99202 98.8343 10.4702C98.665 10.9442 98.3286 11.3525 97.825 11.6953C97.3256 12.0339 96.6443 12.2031 95.7811 12.2031C94.8416 12.2031 94.1285 12.0402 93.6419 11.7144C93.1552 11.3885 92.8103 10.9505 92.6072 10.4004C92.4718 10.0238 92.4041 9.31706 92.4041 8.28027V4.91602C92.4041 4.38704 92.33 4.04004 92.1819 3.875C92.0381 3.70996 91.8032 3.62744 91.4773 3.62744H91.1536V3.39258H94.8733V3.62744H94.5433C94.1878 3.62744 93.9339 3.73958 93.7815 3.96387C93.6757 4.11621 93.6228 4.43359 93.6228 4.91602V8.66748C93.6228 9.00179 93.6525 9.38477 93.7117 9.81641C93.7752 10.248 93.8873 10.5845 94.0481 10.8257C94.2089 11.0669 94.4396 11.2658 94.74 11.4224C95.0447 11.5789 95.4171 11.6572 95.8572 11.6572C96.42 11.6572 96.9236 11.5345 97.368 11.2891C97.8123 11.0436 98.1149 10.7305 98.2757 10.3496C98.4407 9.96452 98.5232 9.31494 98.5232 8.40088V4.91602C98.5232 4.37858 98.464 4.04215 98.3455 3.90674C98.1805 3.72054 97.935 3.62744 97.6092 3.62744H97.2854ZM107.003 7.60742C107.6 7.73438 108.046 7.9375 108.343 8.2168C108.753 8.60612 108.958 9.08219 108.958 9.64502C108.958 10.0724 108.823 10.4829 108.552 10.8765C108.281 11.2658 107.909 11.5514 107.435 11.7334C106.965 11.9111 106.246 12 105.277 12H101.214V11.7651H101.538C101.898 11.7651 102.156 11.6509 102.312 11.4224C102.41 11.2743 102.458 10.959 102.458 10.4766V4.91602C102.458 4.38281 102.397 4.04639 102.274 3.90674C102.109 3.72054 101.864 3.62744 101.538 3.62744H101.214V3.39258H104.934C105.628 3.39258 106.184 3.44336 106.603 3.54492C107.238 3.69727 107.723 3.9681 108.057 4.35742C108.391 4.74251 108.558 5.18685 108.558 5.69043C108.558 6.12207 108.427 6.50928 108.165 6.85205C107.902 7.19059 107.515 7.44238 107.003 7.60742ZM103.677 7.26465C103.834 7.29427 104.011 7.31755 104.21 7.33447C104.413 7.34717 104.636 7.35352 104.877 7.35352C105.495 7.35352 105.958 7.28792 106.267 7.15674C106.58 7.02132 106.819 6.81608 106.984 6.54102C107.149 6.26595 107.232 5.96549 107.232 5.63965C107.232 5.13607 107.026 4.70654 106.616 4.35107C106.206 3.99561 105.607 3.81787 104.82 3.81787C104.396 3.81787 104.016 3.86442 103.677 3.95752V7.26465ZM103.677 11.3779C104.168 11.4922 104.652 11.5493 105.131 11.5493C105.897 11.5493 106.481 11.3779 106.883 11.0352C107.285 10.6882 107.486 10.2607 107.486 9.75293C107.486 9.41862 107.395 9.09701 107.213 8.78809C107.031 8.47917 106.734 8.23584 106.324 8.05811C105.914 7.88037 105.406 7.7915 104.801 7.7915C104.538 7.7915 104.314 7.79574 104.128 7.8042C103.942 7.81266 103.791 7.82747 103.677 7.84863V11.3779ZM114.944 3.1958C116.061 3.1958 117.028 3.62109 117.844 4.47168C118.665 5.31803 119.076 6.37598 119.076 7.64551C119.076 8.95312 118.663 10.0386 117.838 10.9019C117.013 11.7651 116.014 12.1968 114.842 12.1968C113.657 12.1968 112.661 11.7757 111.852 10.9336C111.048 10.0915 110.646 9.00179 110.646 7.66455C110.646 6.29769 111.112 5.18262 112.043 4.31934C112.851 3.57031 113.818 3.1958 114.944 3.1958ZM114.823 3.65918C114.053 3.65918 113.435 3.94482 112.969 4.51611C112.39 5.22705 112.1 6.26807 112.1 7.63916C112.1 9.04411 112.4 10.1253 113.001 10.8828C113.462 11.4583 114.072 11.7461 114.829 11.7461C115.638 11.7461 116.304 11.4308 116.829 10.8003C117.358 10.1698 117.622 9.17529 117.622 7.81689C117.622 6.34424 117.332 5.24609 116.753 4.52246C116.287 3.94694 115.644 3.65918 114.823 3.65918ZM129.333 3.39258V3.62744C129.029 3.68245 128.798 3.77979 128.641 3.91943C128.417 4.12679 128.218 4.44417 128.045 4.87158L125.042 12.1968H124.807L121.583 4.77637C121.418 4.39551 121.301 4.16276 121.234 4.07812C121.128 3.94694 120.997 3.84538 120.84 3.77344C120.688 3.69727 120.48 3.6486 120.218 3.62744V3.39258H123.735V3.62744C123.337 3.66553 123.079 3.73324 122.96 3.83057C122.842 3.9279 122.782 4.05273 122.782 4.20508C122.782 4.41667 122.88 4.74674 123.074 5.19531L125.264 10.2417L127.296 5.25879C127.495 4.7679 127.594 4.42725 127.594 4.23682C127.594 4.1141 127.533 3.99772 127.41 3.8877C127.287 3.77344 127.08 3.69303 126.788 3.64648C126.767 3.64225 126.731 3.6359 126.68 3.62744V3.39258H129.333ZM135.979 3.1958V6.17285H135.744C135.668 5.60156 135.53 5.14665 135.331 4.80811C135.137 4.46956 134.857 4.20085 134.493 4.00195C134.129 3.80306 133.753 3.70361 133.363 3.70361C132.923 3.70361 132.559 3.83903 132.272 4.10986C131.984 4.37646 131.84 4.68115 131.84 5.02393C131.84 5.2863 131.931 5.52539 132.113 5.74121C132.375 6.05859 133 6.48177 133.986 7.01074C134.79 7.44238 135.338 7.77458 135.63 8.00732C135.926 8.23584 136.152 8.50667 136.309 8.81982C136.47 9.13298 136.55 9.46094 136.55 9.80371C136.55 10.4554 136.296 11.0182 135.788 11.4922C135.285 11.9619 134.635 12.1968 133.84 12.1968C133.59 12.1968 133.355 12.1777 133.135 12.1396C133.004 12.1185 132.731 12.0423 132.316 11.9111C131.906 11.7757 131.645 11.708 131.535 11.708C131.43 11.708 131.345 11.7397 131.281 11.8032C131.222 11.8667 131.178 11.9979 131.148 12.1968H130.913V9.24512H131.148C131.258 9.86296 131.406 10.3263 131.592 10.6353C131.779 10.9399 132.062 11.1938 132.443 11.397C132.828 11.6001 133.249 11.7017 133.706 11.7017C134.235 11.7017 134.652 11.562 134.957 11.2827C135.266 11.0034 135.42 10.6733 135.42 10.2925C135.42 10.0809 135.361 9.86719 135.242 9.65137C135.128 9.43555 134.948 9.23454 134.703 9.04834C134.538 8.92139 134.087 8.65267 133.351 8.24219C132.614 7.82747 132.09 7.4974 131.777 7.25195C131.468 7.00651 131.233 6.73568 131.072 6.43945C130.911 6.14323 130.831 5.81738 130.831 5.46191C130.831 4.84408 131.068 4.31299 131.542 3.86865C132.016 3.42008 132.619 3.1958 133.351 3.1958C133.808 3.1958 134.292 3.30794 134.804 3.53223C135.041 3.63802 135.209 3.69092 135.306 3.69092C135.416 3.69092 135.505 3.65918 135.572 3.5957C135.644 3.52799 135.702 3.39469 135.744 3.1958H135.979ZM141.659 7.22656L144.833 10.3813C145.354 10.9019 145.798 11.2573 146.166 11.4478C146.534 11.634 146.903 11.7397 147.271 11.7651V12H143.176V11.7651C143.422 11.7651 143.598 11.7249 143.703 11.6445C143.813 11.5599 143.868 11.4668 143.868 11.3652C143.868 11.2637 143.847 11.1727 143.805 11.0923C143.767 11.0119 143.636 10.8617 143.411 10.6416L140.441 7.70264V10.4766C140.441 10.9124 140.468 11.2002 140.523 11.3398C140.565 11.4456 140.654 11.5366 140.79 11.6128C140.972 11.7144 141.164 11.7651 141.367 11.7651H141.659V12H137.99V11.7651H138.295C138.651 11.7651 138.909 11.6615 139.07 11.4541C139.171 11.3187 139.222 10.9928 139.222 10.4766V4.91602C139.222 4.48014 139.194 4.19027 139.139 4.04639C139.097 3.94482 139.01 3.85596 138.879 3.77979C138.693 3.67822 138.498 3.62744 138.295 3.62744H137.99V3.39258H141.659V3.62744H141.367C141.168 3.62744 140.976 3.67611 140.79 3.77344C140.659 3.84115 140.568 3.94271 140.517 4.07812C140.466 4.21354 140.441 4.49284 140.441 4.91602V7.55029C140.525 7.46989 140.815 7.20117 141.31 6.74414C142.567 5.5931 143.327 4.82503 143.589 4.43994C143.703 4.27067 143.76 4.12256 143.76 3.99561C143.76 3.89827 143.716 3.81364 143.627 3.7417C143.538 3.66553 143.388 3.62744 143.176 3.62744H142.98V3.39258H146.141V3.62744C145.955 3.63167 145.785 3.65706 145.633 3.70361C145.481 3.75016 145.294 3.84115 145.074 3.97656C144.854 4.10775 144.584 4.32145 144.262 4.61768C144.169 4.70231 143.739 5.13607 142.973 5.91895L141.659 7.22656ZM153.884 3.39258H156.887V3.62744H156.722C156.612 3.62744 156.451 3.67611 156.239 3.77344C156.028 3.87077 155.835 4.01042 155.662 4.19238C155.488 4.37435 155.275 4.67057 155.021 5.08105L152.945 8.3501V10.5083C152.945 11.0373 153.004 11.3674 153.123 11.4985C153.284 11.6763 153.537 11.7651 153.884 11.7651H154.164V12H150.508V11.7651H150.812C151.176 11.7651 151.434 11.6551 151.587 11.4351C151.68 11.2996 151.726 10.9907 151.726 10.5083V8.4707L149.365 4.86523C149.086 4.44206 148.895 4.17757 148.794 4.07178C148.696 3.96598 148.491 3.83903 148.178 3.69092C148.093 3.6486 147.971 3.62744 147.81 3.62744V3.39258H151.491V3.62744H151.301C151.102 3.62744 150.918 3.67399 150.749 3.76709C150.584 3.86019 150.501 3.99984 150.501 4.18604C150.501 4.33838 150.63 4.61344 150.888 5.01123L152.685 7.78516L154.373 5.13184C154.627 4.73405 154.754 4.43783 154.754 4.24316C154.754 4.12467 154.722 4.01888 154.659 3.92578C154.6 3.83268 154.513 3.76074 154.399 3.70996C154.284 3.65495 154.113 3.62744 153.884 3.62744V3.39258ZM163.799 3.39258H166.801V3.62744H166.636C166.526 3.62744 166.366 3.67611 166.154 3.77344C165.942 3.87077 165.75 4.01042 165.576 4.19238C165.403 4.37435 165.189 4.67057 164.935 5.08105L162.86 8.3501V10.5083C162.86 11.0373 162.919 11.3674 163.037 11.4985C163.198 11.6763 163.452 11.7651 163.799 11.7651H164.078V12H160.422V11.7651H160.727C161.091 11.7651 161.349 11.6551 161.501 11.4351C161.594 11.2996 161.641 10.9907 161.641 10.5083V8.4707L159.279 4.86523C159 4.44206 158.81 4.17757 158.708 4.07178C158.611 3.96598 158.406 3.83903 158.092 3.69092C158.008 3.6486 157.885 3.62744 157.724 3.62744V3.39258H161.406V3.62744H161.215C161.017 3.62744 160.833 3.67399 160.663 3.76709C160.498 3.86019 160.416 3.99984 160.416 4.18604C160.416 4.33838 160.545 4.61344 160.803 5.01123L162.599 7.78516L164.288 5.13184C164.542 4.73405 164.669 4.43783 164.669 4.24316C164.669 4.12467 164.637 4.01888 164.573 3.92578C164.514 3.83268 164.427 3.76074 164.313 3.70996C164.199 3.65495 164.027 3.62744 163.799 3.62744V3.39258Z" fill="black"/>
<path d="M2.77734 25.8374V26H0.224121V25.8374H0.435059C0.681152 25.8374 0.859863 25.7656 0.971191 25.6221C1.0415 25.5283 1.07666 25.3027 1.07666 24.9453V21.0957C1.07666 20.7939 1.05762 20.5947 1.01953 20.498C0.990234 20.4248 0.930176 20.3618 0.839355 20.3091C0.710449 20.2388 0.575684 20.2036 0.435059 20.2036H0.224121V20.041H2.77734V20.2036H2.56201C2.31885 20.2036 2.1416 20.2754 2.03027 20.4189C1.95703 20.5127 1.92041 20.7383 1.92041 21.0957V24.9453C1.92041 25.2471 1.93945 25.4463 1.97754 25.543C2.00684 25.6162 2.06836 25.6792 2.16211 25.7319C2.28809 25.8022 2.42139 25.8374 2.56201 25.8374H2.77734ZM3.86842 20.041H5.48561L9.12867 24.5103V21.0737C9.12867 20.7075 9.08766 20.479 9.00563 20.3882C8.89723 20.2651 8.72584 20.2036 8.49146 20.2036H8.28492V20.041H10.3591V20.2036H10.1482C9.89625 20.2036 9.71754 20.2798 9.61207 20.4321C9.54762 20.5259 9.51539 20.7397 9.51539 21.0737V26.0967H9.35719L5.42848 21.2979V24.9673C5.42848 25.3335 5.46803 25.562 5.54713 25.6528C5.65846 25.7759 5.82984 25.8374 6.06129 25.8374H6.27223V26H4.19801V25.8374H4.40455C4.65943 25.8374 4.83961 25.7612 4.94508 25.6089C5.00953 25.5151 5.04176 25.3013 5.04176 24.9673V20.8232C4.86891 20.6211 4.73707 20.4878 4.64625 20.4233C4.55836 20.3589 4.42799 20.2988 4.25514 20.2432C4.17018 20.2168 4.04127 20.2036 3.86842 20.2036V20.041ZM16.6885 20.041L16.7544 21.4385H16.5874C16.5552 21.1924 16.5112 21.0166 16.4556 20.9111C16.3648 20.7412 16.2432 20.6167 16.0908 20.5376C15.9414 20.4556 15.7437 20.4146 15.4976 20.4146H14.6582V24.9673C14.6582 25.3335 14.6978 25.562 14.7769 25.6528C14.8882 25.7759 15.0596 25.8374 15.291 25.8374H15.4976V26H12.9707V25.8374H13.1817C13.4336 25.8374 13.6123 25.7612 13.7178 25.6089C13.7822 25.5151 13.8145 25.3013 13.8145 24.9673V20.4146H13.0982C12.8198 20.4146 12.6221 20.4351 12.5049 20.4761C12.3526 20.5317 12.2222 20.6387 12.1138 20.7969C12.0054 20.9551 11.9409 21.1689 11.9204 21.4385H11.7534L11.8237 20.041H16.6885ZM19.8538 20.3662V22.7217H21.1634C21.5032 22.7217 21.7303 22.6704 21.8445 22.5679C21.9969 22.4331 22.0818 22.1958 22.0994 21.856H22.262V23.9302H22.0994C22.0584 23.6401 22.0174 23.4541 21.9763 23.3721C21.9236 23.2695 21.8372 23.189 21.7171 23.1304C21.597 23.0718 21.4124 23.0425 21.1634 23.0425H19.8538V25.0068C19.8538 25.2705 19.8655 25.4316 19.8889 25.4902C19.9124 25.5459 19.9534 25.5913 20.012 25.6265C20.0706 25.6587 20.1819 25.6748 20.346 25.6748H21.3567C21.6936 25.6748 21.9383 25.6514 22.0906 25.6045C22.2429 25.5576 22.3894 25.4653 22.5301 25.3276C22.7117 25.146 22.8977 24.8721 23.0882 24.5059H23.2639L22.7498 26H18.1575V25.8374H18.3684C18.5091 25.8374 18.6424 25.8037 18.7683 25.7363C18.8621 25.6895 18.9251 25.6191 18.9573 25.5254C18.9925 25.4316 19.01 25.2397 19.01 24.9497V21.0781C19.01 20.7002 18.972 20.4673 18.8958 20.3794C18.7903 20.2622 18.6145 20.2036 18.3684 20.2036H18.1575V20.041H22.7498L22.8157 21.3462H22.6443C22.5828 21.0327 22.5139 20.8174 22.4378 20.7002C22.3645 20.583 22.2547 20.4937 22.1082 20.4321C21.991 20.3882 21.7845 20.3662 21.4886 20.3662H19.8538ZM30.5469 26H28.9561L26.939 23.2139C26.7896 23.2197 26.668 23.2227 26.5743 23.2227C26.5362 23.2227 26.4952 23.2227 26.4512 23.2227C26.4073 23.2197 26.3619 23.2168 26.315 23.2139V24.9453C26.315 25.3203 26.356 25.5532 26.438 25.644C26.5494 25.7729 26.7163 25.8374 26.939 25.8374H27.1719V26H24.6187V25.8374H24.8428C25.0948 25.8374 25.2749 25.7554 25.3833 25.5913C25.4449 25.5005 25.4756 25.2852 25.4756 24.9453V21.0957C25.4756 20.7207 25.4346 20.4878 25.3526 20.397C25.2383 20.2681 25.0684 20.2036 24.8428 20.2036H24.6187V20.041H26.7896C27.4224 20.041 27.8882 20.0879 28.187 20.1816C28.4888 20.2725 28.7437 20.4424 28.9517 20.6914C29.1626 20.9375 29.2681 21.2319 29.2681 21.5747C29.2681 21.9409 29.148 22.2588 28.9078 22.5283C28.6704 22.7979 28.3013 22.9883 27.8003 23.0996L29.0308 24.8091C29.312 25.2017 29.5537 25.4624 29.7559 25.5913C29.958 25.7202 30.2217 25.8022 30.5469 25.8374V26ZM26.315 22.937C26.3706 22.937 26.419 22.9385 26.46 22.9414C26.501 22.9414 26.5347 22.9414 26.5611 22.9414C27.1294 22.9414 27.5572 22.8184 27.8443 22.5723C28.1343 22.3262 28.2793 22.0127 28.2793 21.6318C28.2793 21.2598 28.1621 20.958 27.9278 20.7266C27.6963 20.4922 27.3887 20.375 27.0049 20.375C26.835 20.375 26.605 20.4028 26.315 20.4585V22.937ZM33.3035 23.2095V24.9453C33.3035 25.3203 33.3445 25.5532 33.4266 25.644C33.5379 25.7729 33.7063 25.8374 33.9319 25.8374H34.1604V26H31.6072V25.8374H31.8313C32.0833 25.8374 32.2635 25.7554 32.3719 25.5913C32.4305 25.5005 32.4598 25.2852 32.4598 24.9453V21.0957C32.4598 20.7207 32.4202 20.4878 32.3411 20.397C32.2269 20.2681 32.0569 20.2036 31.8313 20.2036H31.6072V20.041H33.7913C34.3245 20.041 34.7449 20.0967 35.0525 20.208C35.3602 20.3164 35.6194 20.501 35.8304 20.7617C36.0413 21.0225 36.1468 21.3315 36.1468 21.689C36.1468 22.1753 35.9856 22.5708 35.6634 22.8755C35.344 23.1802 34.8914 23.3325 34.3055 23.3325C34.1619 23.3325 34.0066 23.3223 33.8396 23.3018C33.6727 23.2812 33.4939 23.2505 33.3035 23.2095ZM33.3035 22.959C33.4588 22.9883 33.5965 23.0103 33.7166 23.0249C33.8367 23.0396 33.9393 23.0469 34.0242 23.0469C34.3289 23.0469 34.5911 22.9297 34.8108 22.6953C35.0335 22.458 35.1448 22.1519 35.1448 21.7769C35.1448 21.519 35.0921 21.2803 34.9866 21.0605C34.8812 20.8379 34.7317 20.6724 34.5384 20.564C34.345 20.4526 34.1253 20.397 33.8792 20.397C33.7298 20.397 33.5379 20.4248 33.3035 20.4805V22.959ZM43.5396 26H41.9488L39.9317 23.2139C39.7823 23.2197 39.6607 23.2227 39.567 23.2227C39.5289 23.2227 39.4879 23.2227 39.4439 23.2227C39.4 23.2197 39.3545 23.2168 39.3077 23.2139V24.9453C39.3077 25.3203 39.3487 25.5532 39.4307 25.644C39.542 25.7729 39.709 25.8374 39.9317 25.8374H40.1646V26H37.6114V25.8374H37.8355C38.0875 25.8374 38.2676 25.7554 38.376 25.5913C38.4376 25.5005 38.4683 25.2852 38.4683 24.9453V21.0957C38.4683 20.7207 38.4273 20.4878 38.3453 20.397C38.231 20.2681 38.0611 20.2036 37.8355 20.2036H37.6114V20.041H39.7823C40.4151 20.041 40.8809 20.0879 41.1797 20.1816C41.4815 20.2725 41.7364 20.4424 41.9444 20.6914C42.1553 20.9375 42.2608 21.2319 42.2608 21.5747C42.2608 21.9409 42.1407 22.2588 41.9004 22.5283C41.6631 22.7979 41.294 22.9883 40.793 23.0996L42.0235 24.8091C42.3047 25.2017 42.5464 25.4624 42.7486 25.5913C42.9507 25.7202 43.2144 25.8022 43.5396 25.8374V26ZM39.3077 22.937C39.3633 22.937 39.4117 22.9385 39.4527 22.9414C39.4937 22.9414 39.5274 22.9414 39.5538 22.9414C40.1221 22.9414 40.5499 22.8184 40.837 22.5723C41.127 22.3262 41.272 22.0127 41.272 21.6318C41.272 21.2598 41.1548 20.958 40.9205 20.7266C40.689 20.4922 40.3814 20.375 39.9976 20.375C39.8277 20.375 39.5977 20.4028 39.3077 20.4585V22.937ZM46.3314 20.3662V22.7217H47.6409C47.9808 22.7217 48.2078 22.6704 48.3221 22.5679C48.4744 22.4331 48.5594 22.1958 48.577 21.856H48.7396V23.9302H48.577C48.536 23.6401 48.4949 23.4541 48.4539 23.3721C48.4012 23.2695 48.3148 23.189 48.1946 23.1304C48.0745 23.0718 47.89 23.0425 47.6409 23.0425H46.3314V25.0068C46.3314 25.2705 46.3431 25.4316 46.3665 25.4902C46.39 25.5459 46.431 25.5913 46.4896 25.6265C46.5482 25.6587 46.6595 25.6748 46.8236 25.6748H47.8343C48.1712 25.6748 48.4158 25.6514 48.5682 25.6045C48.7205 25.5576 48.867 25.4653 49.0076 25.3276C49.1893 25.146 49.3753 24.8721 49.5657 24.5059H49.7415L49.2274 26H44.6351V25.8374H44.846C44.9866 25.8374 45.1199 25.8037 45.2459 25.7363C45.3397 25.6895 45.4027 25.6191 45.4349 25.5254C45.47 25.4316 45.4876 25.2397 45.4876 24.9497V21.0781C45.4876 20.7002 45.4495 20.4673 45.3734 20.3794C45.2679 20.2622 45.0921 20.2036 44.846 20.2036H44.6351V20.041H49.2274L49.2933 21.3462H49.1219C49.0604 21.0327 48.9915 20.8174 48.9154 20.7002C48.8421 20.583 48.7322 20.4937 48.5858 20.4321C48.4686 20.3882 48.262 20.3662 47.9661 20.3662H46.3314ZM56.15 20.041L56.2159 21.4385H56.0489C56.0167 21.1924 55.9727 21.0166 55.9171 20.9111C55.8262 20.7412 55.7047 20.6167 55.5523 20.5376C55.4029 20.4556 55.2052 20.4146 54.9591 20.4146H54.1197V24.9673C54.1197 25.3335 54.1593 25.562 54.2384 25.6528C54.3497 25.7759 54.5211 25.8374 54.7525 25.8374H54.9591V26H52.4322V25.8374H52.6431C52.8951 25.8374 53.0738 25.7612 53.1793 25.6089C53.2437 25.5151 53.276 25.3013 53.276 24.9673V20.4146H52.5596C52.2813 20.4146 52.0836 20.4351 51.9664 20.4761C51.814 20.5317 51.6837 20.6387 51.5753 20.7969C51.4669 20.9551 51.4024 21.1689 51.3819 21.4385H51.2149L51.2852 20.041H56.15ZM59.3153 20.3662V22.7217H60.6248C60.9647 22.7217 61.1917 22.6704 61.306 22.5679C61.4583 22.4331 61.5433 22.1958 61.5609 21.856H61.7235V23.9302H61.5609C61.5199 23.6401 61.4788 23.4541 61.4378 23.3721C61.3851 23.2695 61.2987 23.189 61.1786 23.1304C61.0584 23.0718 60.8739 23.0425 60.6248 23.0425H59.3153V25.0068C59.3153 25.2705 59.327 25.4316 59.3504 25.4902C59.3739 25.5459 59.4149 25.5913 59.4735 25.6265C59.5321 25.6587 59.6434 25.6748 59.8075 25.6748H60.8182C61.1551 25.6748 61.3997 25.6514 61.5521 25.6045C61.7044 25.5576 61.8509 25.4653 61.9915 25.3276C62.1732 25.146 62.3592 24.8721 62.5496 24.5059H62.7254L62.2113 26H57.619V25.8374H57.8299C57.9705 25.8374 58.1038 25.8037 58.2298 25.7363C58.3236 25.6895 58.3866 25.6191 58.4188 25.5254C58.4539 25.4316 58.4715 25.2397 58.4715 24.9497V21.0781C58.4715 20.7002 58.4334 20.4673 58.3573 20.3794C58.2518 20.2622 58.076 20.2036 57.8299 20.2036H57.619V20.041H62.2113L62.2772 21.3462H62.1058C62.0443 21.0327 61.9754 20.8174 61.8993 20.7002C61.826 20.583 61.7162 20.4937 61.5697 20.4321C61.4525 20.3882 61.2459 20.3662 60.95 20.3662H59.3153ZM70.0084 26H68.4176L66.4005 23.2139C66.2511 23.2197 66.1295 23.2227 66.0357 23.2227C65.9977 23.2227 65.9566 23.2227 65.9127 23.2227C65.8688 23.2197 65.8233 23.2168 65.7765 23.2139V24.9453C65.7765 25.3203 65.8175 25.5532 65.8995 25.644C66.0108 25.7729 66.1778 25.8374 66.4005 25.8374H66.6334V26H64.0802V25.8374H64.3043C64.5563 25.8374 64.7364 25.7554 64.8448 25.5913C64.9063 25.5005 64.9371 25.2852 64.9371 24.9453V21.0957C64.9371 20.7207 64.8961 20.4878 64.8141 20.397C64.6998 20.2681 64.5299 20.2036 64.3043 20.2036H64.0802V20.041H66.2511C66.8839 20.041 67.3497 20.0879 67.6485 20.1816C67.9503 20.2725 68.2052 20.4424 68.4132 20.6914C68.6241 20.9375 68.7296 21.2319 68.7296 21.5747C68.7296 21.9409 68.6095 22.2588 68.3692 22.5283C68.1319 22.7979 67.7628 22.9883 67.2618 23.0996L68.4923 24.8091C68.7735 25.2017 69.0152 25.4624 69.2174 25.5913C69.4195 25.7202 69.6832 25.8022 70.0084 25.8374V26ZM65.7765 22.937C65.8321 22.937 65.8805 22.9385 65.9215 22.9414C65.9625 22.9414 65.9962 22.9414 66.0226 22.9414C66.5909 22.9414 67.0187 22.8184 67.3058 22.5723C67.5958 22.3262 67.7408 22.0127 67.7408 21.6318C67.7408 21.2598 67.6236 20.958 67.3893 20.7266C67.1578 20.4922 66.8502 20.375 66.4664 20.375C66.2965 20.375 66.0665 20.4028 65.7765 20.4585V22.937ZM77.7848 24.0049H75.4777L75.0734 24.9453C74.9737 25.1768 74.9239 25.3496 74.9239 25.4639C74.9239 25.5547 74.9664 25.6353 75.0514 25.7056C75.1393 25.7729 75.3268 25.8169 75.6139 25.8374V26H73.7374V25.8374C73.9864 25.7935 74.1476 25.7363 74.2208 25.666C74.3702 25.5254 74.5358 25.2397 74.7174 24.8091L76.8136 19.9048H76.9674L79.0416 24.8618C79.2086 25.2603 79.3595 25.5195 79.4943 25.6396C79.632 25.7568 79.8224 25.8228 80.0655 25.8374V26H77.7145V25.8374C77.9518 25.8257 78.1114 25.7861 78.1935 25.7188C78.2784 25.6514 78.3209 25.5693 78.3209 25.4727C78.3209 25.3438 78.2623 25.1401 78.1451 24.8618L77.7848 24.0049ZM77.6617 23.6797L76.651 21.2715L75.6139 23.6797H77.6617ZM81.0424 20.041H82.6596L86.3026 24.5103V21.0737C86.3026 20.7075 86.2616 20.479 86.1796 20.3882C86.0712 20.2651 85.8998 20.2036 85.6654 20.2036H85.4589V20.041H87.5331V20.2036H87.3222C87.0702 20.2036 86.8915 20.2798 86.786 20.4321C86.7216 20.5259 86.6893 20.7397 86.6893 21.0737V26.0967H86.5311L82.6024 21.2979V24.9673C82.6024 25.3335 82.642 25.562 82.7211 25.6528C82.8324 25.7759 83.0038 25.8374 83.2352 25.8374H83.4462V26H81.372V25.8374H81.5785C81.8334 25.8374 82.0136 25.7612 82.119 25.6089C82.1835 25.5151 82.2157 25.3013 82.2157 24.9673V20.8232C82.0429 20.6211 81.911 20.4878 81.8202 20.4233C81.7323 20.3589 81.6019 20.2988 81.4291 20.2432C81.3441 20.2168 81.2152 20.2036 81.0424 20.2036V20.041ZM88.8087 26V25.8374H89.0329C89.2848 25.8374 89.4635 25.7568 89.569 25.5957C89.6334 25.499 89.6657 25.2822 89.6657 24.9453V21.0957C89.6657 20.7236 89.6246 20.4907 89.5426 20.397C89.4284 20.2681 89.2584 20.2036 89.0329 20.2036H88.8087V20.041H91.2345C92.1251 20.041 92.8019 20.1421 93.2648 20.3442C93.7306 20.5464 94.1041 20.8833 94.3854 21.355C94.6696 21.8267 94.8117 22.3716 94.8117 22.9897C94.8117 23.8188 94.5597 24.5117 94.0558 25.0684C93.4904 25.6895 92.629 26 91.4718 26H88.8087ZM90.5094 25.5693C90.8815 25.6514 91.1935 25.6924 91.4454 25.6924C92.1251 25.6924 92.6891 25.4536 93.1373 24.9761C93.5856 24.4985 93.8097 23.8511 93.8097 23.0337C93.8097 22.2104 93.5856 21.5615 93.1373 21.0869C92.6891 20.6123 92.1134 20.375 91.4103 20.375C91.1466 20.375 90.8463 20.4175 90.5094 20.5024V25.5693ZM104.438 20.041L104.504 21.4385H104.337C104.305 21.1924 104.261 21.0166 104.205 20.9111C104.114 20.7412 103.993 20.6167 103.84 20.5376C103.691 20.4556 103.493 20.4146 103.247 20.4146H102.408V24.9673C102.408 25.3335 102.447 25.562 102.527 25.6528C102.638 25.7759 102.809 25.8374 103.041 25.8374H103.247V26H100.72V25.8374H100.931C101.183 25.8374 101.362 25.7612 101.467 25.6089C101.532 25.5151 101.564 25.3013 101.564 24.9673V20.4146H100.848C100.569 20.4146 100.372 20.4351 100.255 20.4761C100.102 20.5317 99.9718 20.6387 99.8634 20.7969C99.755 20.9551 99.6906 21.1689 99.6701 21.4385H99.5031L99.5734 20.041H104.438ZM111.805 26H110.214L108.197 23.2139C108.047 23.2197 107.926 23.2227 107.832 23.2227C107.794 23.2227 107.753 23.2227 107.709 23.2227C107.665 23.2197 107.62 23.2168 107.573 23.2139V24.9453C107.573 25.3203 107.614 25.5532 107.696 25.644C107.807 25.7729 107.974 25.8374 108.197 25.8374H108.43V26H105.876V25.8374H106.101C106.352 25.8374 106.533 25.7554 106.641 25.5913C106.703 25.5005 106.733 25.2852 106.733 24.9453V21.0957C106.733 20.7207 106.692 20.4878 106.61 20.397C106.496 20.2681 106.326 20.2036 106.101 20.2036H105.876V20.041H108.047C108.68 20.041 109.146 20.0879 109.445 20.1816C109.747 20.2725 110.001 20.4424 110.209 20.6914C110.42 20.9375 110.526 21.2319 110.526 21.5747C110.526 21.9409 110.406 22.2588 110.165 22.5283C109.928 22.7979 109.559 22.9883 109.058 23.0996L110.288 24.8091C110.57 25.2017 110.811 25.4624 111.014 25.5913C111.216 25.7202 111.479 25.8022 111.805 25.8374V26ZM107.573 22.937C107.628 22.937 107.677 22.9385 107.718 22.9414C107.759 22.9414 107.792 22.9414 107.819 22.9414C108.387 22.9414 108.815 22.8184 109.102 22.5723C109.392 22.3262 109.537 22.0127 109.537 21.6318C109.537 21.2598 109.42 20.958 109.185 20.7266C108.954 20.4922 108.646 20.375 108.263 20.375C108.093 20.375 107.863 20.4028 107.573 20.4585V22.937ZM116.833 24.0049H114.526L114.122 24.9453C114.022 25.1768 113.972 25.3496 113.972 25.4639C113.972 25.5547 114.015 25.6353 114.1 25.7056C114.188 25.7729 114.375 25.8169 114.662 25.8374V26H112.786V25.8374C113.035 25.7935 113.196 25.7363 113.269 25.666C113.419 25.5254 113.584 25.2397 113.766 24.8091L115.862 19.9048H116.016L118.09 24.8618C118.257 25.2603 118.408 25.5195 118.543 25.6396C118.68 25.7568 118.871 25.8228 119.114 25.8374V26H116.763V25.8374C117 25.8257 117.16 25.7861 117.242 25.7188C117.327 25.6514 117.369 25.5693 117.369 25.4727C117.369 25.3438 117.311 25.1401 117.194 24.8618L116.833 24.0049ZM116.71 23.6797L115.699 21.2715L114.662 23.6797H116.71ZM120.091 20.041H121.708L125.351 24.5103V21.0737C125.351 20.7075 125.31 20.479 125.228 20.3882C125.12 20.2651 124.948 20.2036 124.714 20.2036H124.507V20.041H126.581V20.2036H126.371C126.119 20.2036 125.94 20.2798 125.834 20.4321C125.77 20.5259 125.738 20.7397 125.738 21.0737V26.0967H125.58L121.651 21.2979V24.9673C121.651 25.3335 121.69 25.562 121.769 25.6528C121.881 25.7759 122.052 25.8374 122.284 25.8374H122.495V26H120.42V25.8374H120.627C120.882 25.8374 121.062 25.7612 121.167 25.6089C121.232 25.5151 121.264 25.3013 121.264 24.9673V20.8232C121.091 20.6211 120.959 20.4878 120.869 20.4233C120.781 20.3589 120.65 20.2988 120.477 20.2432C120.393 20.2168 120.264 20.2036 120.091 20.2036V20.041ZM131.83 19.9048V21.9658H131.667C131.614 21.5703 131.519 21.2554 131.382 21.021C131.247 20.7866 131.053 20.6006 130.801 20.4629C130.55 20.3252 130.289 20.2563 130.019 20.2563C129.715 20.2563 129.463 20.3501 129.263 20.5376C129.064 20.7222 128.965 20.9331 128.965 21.1704C128.965 21.3521 129.028 21.5176 129.154 21.667C129.335 21.8867 129.767 22.1797 130.45 22.5459C131.007 22.8447 131.386 23.0747 131.588 23.2358C131.793 23.394 131.95 23.5815 132.058 23.7983C132.17 24.0151 132.225 24.2422 132.225 24.4795C132.225 24.9307 132.05 25.3203 131.698 25.6484C131.349 25.9736 130.9 26.1362 130.349 26.1362C130.176 26.1362 130.013 26.123 129.861 26.0967C129.77 26.082 129.581 26.0293 129.294 25.9385C129.01 25.8447 128.83 25.7979 128.754 25.7979C128.68 25.7979 128.622 25.8198 128.578 25.8638C128.537 25.9077 128.506 25.9985 128.486 26.1362H128.323V24.0928H128.486C128.562 24.5205 128.664 24.8413 128.793 25.0552C128.922 25.2661 129.118 25.4419 129.382 25.5825C129.649 25.7231 129.94 25.7935 130.257 25.7935C130.623 25.7935 130.911 25.6968 131.122 25.5034C131.336 25.3101 131.443 25.0815 131.443 24.8179C131.443 24.6714 131.402 24.5234 131.32 24.374C131.241 24.2246 131.116 24.0854 130.946 23.9565C130.832 23.8687 130.52 23.6826 130.01 23.3984C129.501 23.1113 129.137 22.8828 128.921 22.7129C128.707 22.543 128.544 22.3555 128.433 22.1504C128.321 21.9453 128.266 21.7197 128.266 21.4736C128.266 21.0459 128.43 20.6782 128.758 20.3706C129.086 20.0601 129.504 19.9048 130.01 19.9048C130.327 19.9048 130.662 19.9824 131.017 20.1377C131.181 20.2109 131.297 20.2476 131.364 20.2476C131.44 20.2476 131.502 20.2256 131.549 20.1816C131.598 20.1348 131.638 20.0425 131.667 19.9048H131.83ZM138.862 24.3521L139.007 24.3828L138.498 26H133.883V25.8374H134.107C134.359 25.8374 134.54 25.7554 134.648 25.5913C134.709 25.4976 134.74 25.2808 134.74 24.9409V21.0957C134.74 20.7236 134.699 20.4907 134.617 20.397C134.503 20.2681 134.333 20.2036 134.107 20.2036H133.883V20.041H136.581V20.2036C136.265 20.2007 136.042 20.23 135.914 20.2915C135.788 20.353 135.701 20.4307 135.654 20.5244C135.607 20.6182 135.584 20.8423 135.584 21.1968V24.9409C135.584 25.1841 135.607 25.3511 135.654 25.4419C135.689 25.5034 135.744 25.5488 135.817 25.5781C135.89 25.6074 136.119 25.6221 136.502 25.6221H136.937C137.394 25.6221 137.715 25.5884 137.9 25.521C138.084 25.4536 138.253 25.335 138.405 25.165C138.558 24.9922 138.71 24.7212 138.862 24.3521ZM144.313 24.0049H142.006L141.601 24.9453C141.502 25.1768 141.452 25.3496 141.452 25.4639C141.452 25.5547 141.494 25.6353 141.579 25.7056C141.667 25.7729 141.855 25.8169 142.142 25.8374V26H140.265V25.8374C140.514 25.7935 140.676 25.7363 140.749 25.666C140.898 25.5254 141.064 25.2397 141.245 24.8091L143.342 19.9048H143.495L145.57 24.8618C145.737 25.2603 145.887 25.5195 146.022 25.6396C146.16 25.7568 146.35 25.8228 146.593 25.8374V26H144.242V25.8374C144.48 25.8257 144.639 25.7861 144.721 25.7188C144.806 25.6514 144.849 25.5693 144.849 25.4727C144.849 25.3438 144.79 25.1401 144.673 24.8618L144.313 24.0049ZM144.19 23.6797L143.179 21.2715L142.142 23.6797H144.19ZM151.903 20.041L151.969 21.4385H151.802C151.77 21.1924 151.726 21.0166 151.67 20.9111C151.58 20.7412 151.458 20.6167 151.306 20.5376C151.156 20.4556 150.958 20.4146 150.712 20.4146H149.873V24.9673C149.873 25.3335 149.913 25.562 149.992 25.6528C150.103 25.7759 150.274 25.8374 150.506 25.8374H150.712V26H148.186V25.8374H148.396C148.648 25.8374 148.827 25.7612 148.933 25.6089C148.997 25.5151 149.029 25.3013 149.029 24.9673V20.4146H148.313C148.035 20.4146 147.837 20.4351 147.72 20.4761C147.567 20.5317 147.437 20.6387 147.329 20.7969C147.22 20.9551 147.156 21.1689 147.135 21.4385H146.968L147.039 20.041H151.903ZM156.321 19.9048C157.094 19.9048 157.764 20.1992 158.329 20.7881C158.898 21.374 159.182 22.1064 159.182 22.9854C159.182 23.8906 158.896 24.6421 158.325 25.2397C157.754 25.8374 157.062 26.1362 156.251 26.1362C155.43 26.1362 154.74 25.8447 154.181 25.2617C153.624 24.6787 153.346 23.9243 153.346 22.9985C153.346 22.0522 153.668 21.2803 154.313 20.6826C154.872 20.1641 155.542 19.9048 156.321 19.9048ZM156.238 20.2256C155.704 20.2256 155.277 20.4233 154.954 20.8188C154.553 21.311 154.352 22.0317 154.352 22.981C154.352 23.9536 154.56 24.7021 154.976 25.2266C155.296 25.625 155.718 25.8242 156.242 25.8242C156.801 25.8242 157.263 25.606 157.626 25.1694C157.992 24.7329 158.176 24.0444 158.176 23.104C158.176 22.0845 157.975 21.3242 157.573 20.8232C157.251 20.4248 156.806 20.2256 156.238 20.2256ZM166.605 26H165.015L162.998 23.2139C162.848 23.2197 162.727 23.2227 162.633 23.2227C162.595 23.2227 162.554 23.2227 162.51 23.2227C162.466 23.2197 162.42 23.2168 162.374 23.2139V24.9453C162.374 25.3203 162.415 25.5532 162.497 25.644C162.608 25.7729 162.775 25.8374 162.998 25.8374H163.23V26H160.677V25.8374H160.901C161.153 25.8374 161.333 25.7554 161.442 25.5913C161.503 25.5005 161.534 25.2852 161.534 24.9453V21.0957C161.534 20.7207 161.493 20.4878 161.411 20.397C161.297 20.2681 161.127 20.2036 160.901 20.2036H160.677V20.041H162.848C163.481 20.041 163.947 20.0879 164.246 20.1816C164.547 20.2725 164.802 20.4424 165.01 20.6914C165.221 20.9375 165.327 21.2319 165.327 21.5747C165.327 21.9409 165.207 22.2588 164.966 22.5283C164.729 22.7979 164.36 22.9883 163.859 23.0996L165.089 24.8091C165.371 25.2017 165.612 25.4624 165.814 25.5913C166.017 25.7202 166.28 25.8022 166.605 25.8374V26ZM162.374 22.937C162.429 22.937 162.478 22.9385 162.519 22.9414C162.56 22.9414 162.593 22.9414 162.62 22.9414C163.188 22.9414 163.616 22.8184 163.903 22.5723C164.193 22.3262 164.338 22.0127 164.338 21.6318C164.338 21.2598 164.221 20.958 163.986 20.7266C163.755 20.4922 163.447 20.375 163.063 20.375C162.894 20.375 162.664 20.4028 162.374 20.4585V22.937Z" fill="black"/>
</svg>
