<svg width="168" height="36" viewBox="0 0 168 36" fill="none" xmlns="http://www.w3.org/2000/svg">
<mask id="path-1-inside-1_149_48" fill="white">
<path d="M0 0H168V22H0V0Z"/>
</mask>
<path d="M168 22V21H0V22V23H168V22Z" fill="#D4AF37" mask="url(#path-1-inside-1_149_48)"/>
<path d="M2.22 6.325C2.51 6.325 2.86 6.32 3.27 6.31C3.69 6.3 4.165 6.295 4.695 6.295C5.415 6.295 6.085 6.43 6.705 6.7C7.335 6.96 7.885 7.325 8.355 7.795C8.835 8.255 9.205 8.795 9.465 9.415C9.735 10.025 9.87 10.68 9.87 11.38C9.87 12.3 9.715 13.06 9.405 13.66C9.105 14.26 8.705 14.73 8.205 15.07C7.715 15.41 7.185 15.65 6.615 15.79C6.045 15.93 5.495 16 4.965 16H2.235C1.955 16 1.63 16 1.26 16C0.9 16.01 0.575 16.02 0.285 16.03C0.235 15.98 0.21 15.9 0.21 15.79C0.21 15.67 0.235 15.585 0.285 15.535C0.635 15.515 0.905 15.48 1.095 15.43C1.285 15.38 1.415 15.26 1.485 15.07C1.555 14.88 1.59 14.58 1.59 14.17V8.155C1.59 7.735 1.555 7.435 1.485 7.255C1.415 7.065 1.285 6.945 1.095 6.895C0.905 6.835 0.635 6.8 0.285 6.79C0.235 6.74 0.21 6.66 0.21 6.55C0.21 6.43 0.235 6.345 0.285 6.295C0.585 6.305 0.915 6.315 1.275 6.325C1.635 6.325 1.95 6.325 2.22 6.325ZM2.865 14.74C2.865 14.9 2.9 15.04 2.97 15.16C3.04 15.27 3.19 15.36 3.42 15.43C3.65 15.49 4.01 15.52 4.5 15.52C5.03 15.52 5.53 15.465 6 15.355C6.47 15.245 6.885 15.05 7.245 14.77C7.615 14.49 7.905 14.105 8.115 13.615C8.325 13.125 8.43 12.5 8.43 11.74C8.43 11.16 8.355 10.58 8.205 10C8.065 9.42 7.825 8.89 7.485 8.41C7.155 7.92 6.715 7.53 6.165 7.24C5.615 6.95 4.935 6.805 4.125 6.805C3.755 6.805 3.45 6.865 3.21 6.985C2.98 7.095 2.865 7.28 2.865 7.54V14.74ZM20.0367 13.03L19.6917 7.99H19.6617L16.2867 15.925C16.2567 15.985 16.2267 16.035 16.1967 16.075C16.1667 16.125 16.1267 16.15 16.0767 16.15C16.0367 16.15 15.9917 16.125 15.9417 16.075C15.9017 16.025 15.8717 15.975 15.8517 15.925L12.7467 8.14H12.7167L12.1467 14.155C12.1367 14.225 12.1267 14.295 12.1167 14.365C12.1167 14.435 12.1167 14.505 12.1167 14.575C12.1167 14.855 12.1867 15.08 12.3267 15.25C12.4667 15.41 12.7367 15.505 13.1367 15.535C13.1767 15.575 13.1967 15.66 13.1967 15.79C13.1967 15.89 13.1767 15.96 13.1367 16H11.7267C11.5467 16 11.3417 16 11.1117 16C10.8917 16.01 10.6667 16.02 10.4367 16.03C10.3967 15.99 10.3767 15.91 10.3767 15.79C10.3767 15.66 10.3967 15.575 10.4367 15.535C10.8667 15.495 11.1517 15.375 11.2917 15.175C11.4317 14.965 11.5217 14.635 11.5617 14.185L12.1617 8.005C12.1717 7.895 12.1767 7.795 12.1767 7.705C12.1867 7.615 12.1917 7.535 12.1917 7.465C12.1917 7.165 12.1217 6.985 11.9817 6.925C11.8417 6.855 11.5617 6.81 11.1417 6.79C11.0917 6.74 11.0667 6.66 11.0667 6.55C11.0667 6.43 11.0917 6.345 11.1417 6.295L13.3167 6.325L16.3917 13.945C16.4417 14.075 16.4817 14.14 16.5117 14.14C16.5417 14.14 16.5867 14.07 16.6467 13.93L19.8267 6.325L21.7917 6.295C21.8417 6.345 21.8667 6.43 21.8667 6.55C21.8667 6.66 21.8417 6.74 21.7917 6.79C21.3617 6.81 21.0767 6.875 20.9367 6.985C20.8067 7.085 20.7417 7.265 20.7417 7.525C20.7417 7.575 20.7417 7.63 20.7417 7.69C20.7517 7.74 20.7567 7.8 20.7567 7.87L21.2067 14.185C21.2367 14.595 21.2767 14.895 21.3267 15.085C21.3767 15.265 21.4767 15.38 21.6267 15.43C21.7767 15.48 22.0217 15.515 22.3617 15.535C22.4117 15.585 22.4367 15.67 22.4367 15.79C22.4367 15.9 22.4117 15.98 22.3617 16.03C22.1117 16.02 21.8317 16.01 21.5217 16C21.2217 16 20.9567 16 20.7267 16C20.5067 16 20.2517 16 19.9617 16C19.6817 16.01 19.4017 16.02 19.1217 16.03C19.0717 15.98 19.0467 15.9 19.0467 15.79C19.0467 15.67 19.0717 15.585 19.1217 15.535C19.5217 15.515 19.7817 15.475 19.9017 15.415C20.0317 15.345 20.0967 15.145 20.0967 14.815C20.0967 14.775 20.0917 14.675 20.0817 14.515C20.0817 14.345 20.0767 14.155 20.0667 13.945C20.0567 13.735 20.0467 13.545 20.0367 13.375C20.0367 13.195 20.0367 13.08 20.0367 13.03ZM27.7308 14.17C27.7308 14.58 27.7658 14.88 27.8358 15.07C27.9158 15.26 28.0608 15.38 28.2708 15.43C28.4808 15.48 28.7858 15.515 29.1858 15.535C29.2258 15.575 29.2458 15.66 29.2458 15.79C29.2458 15.91 29.2258 15.99 29.1858 16.03C28.8158 16.02 28.4458 16.01 28.0758 16C27.7158 16 27.3908 16 27.1008 16C26.8108 16 26.4808 16 26.1108 16C25.7408 16.01 25.3708 16.02 25.0008 16.03C24.9508 15.98 24.9258 15.9 24.9258 15.79C24.9258 15.67 24.9508 15.585 25.0008 15.535C25.4008 15.515 25.7058 15.48 25.9158 15.43C26.1258 15.38 26.2658 15.26 26.3358 15.07C26.4158 14.88 26.4558 14.58 26.4558 14.17V12.265C26.4558 11.985 26.4358 11.78 26.3958 11.65C26.3558 11.51 26.2708 11.33 26.1408 11.11L24.1758 7.795C24.0058 7.505 23.8508 7.295 23.7108 7.165C23.5808 7.025 23.4408 6.93 23.2908 6.88C23.1508 6.83 22.9758 6.8 22.7658 6.79C22.7058 6.73 22.6758 6.64 22.6758 6.52C22.6758 6.42 22.7008 6.345 22.7508 6.295C22.9808 6.305 23.2208 6.315 23.4708 6.325C23.7208 6.325 23.9908 6.325 24.2808 6.325C24.5808 6.325 24.8708 6.325 25.1508 6.325C25.4408 6.315 25.7208 6.305 25.9908 6.295C26.0408 6.345 26.0658 6.43 26.0658 6.55C26.0658 6.66 26.0408 6.74 25.9908 6.79C25.7308 6.8 25.5408 6.825 25.4208 6.865C25.3008 6.905 25.2408 6.98 25.2408 7.09C25.2408 7.19 25.3108 7.365 25.4508 7.615L27.1908 10.69C27.2708 10.82 27.3308 10.885 27.3708 10.885C27.4108 10.885 27.4608 10.83 27.5208 10.72L29.1858 7.585C29.2758 7.405 29.3208 7.26 29.3208 7.15C29.3208 7.02 29.2558 6.93 29.1258 6.88C29.0058 6.83 28.8308 6.8 28.6008 6.79C28.5508 6.74 28.5258 6.66 28.5258 6.55C28.5258 6.43 28.5508 6.345 28.6008 6.295C28.8408 6.305 29.0858 6.315 29.3358 6.325C29.5858 6.325 29.7958 6.325 29.9658 6.325C30.1358 6.325 30.3308 6.325 30.5508 6.325C30.7808 6.315 31.0008 6.305 31.2108 6.295C31.2608 6.345 31.2858 6.43 31.2858 6.55C31.2858 6.66 31.2608 6.74 31.2108 6.79C30.8708 6.82 30.6008 6.895 30.4008 7.015C30.2008 7.125 29.9958 7.37 29.7858 7.75L27.9858 10.99C27.8658 11.21 27.7908 11.4 27.7608 11.56C27.7408 11.71 27.7308 11.9 27.7308 12.13V14.17ZM36.613 14.14C36.613 14.56 36.648 14.865 36.718 15.055C36.788 15.245 36.923 15.37 37.123 15.43C37.333 15.48 37.638 15.515 38.038 15.535C38.088 15.585 38.113 15.67 38.113 15.79C38.113 15.88 38.088 15.95 38.038 16H35.953C35.653 16 35.318 16 34.948 16C34.588 16.01 34.223 16.02 33.853 16.03C33.813 15.99 33.793 15.91 33.793 15.79C33.793 15.66 33.813 15.575 33.853 15.535C34.253 15.515 34.558 15.48 34.768 15.43C34.978 15.38 35.118 15.26 35.188 15.07C35.268 14.88 35.308 14.58 35.308 14.17V8.395C35.308 7.935 35.258 7.575 35.158 7.315C35.068 7.045 34.883 6.91 34.603 6.91H33.868C33.378 6.91 32.963 7.025 32.623 7.255C32.283 7.485 32.038 7.9 31.888 8.5C31.798 8.5 31.708 8.495 31.618 8.485C31.538 8.475 31.458 8.455 31.378 8.425C31.458 8.065 31.533 7.7 31.603 7.33C31.673 6.95 31.723 6.59 31.753 6.25C31.753 6.22 31.773 6.205 31.813 6.205C32.003 6.215 32.298 6.23 32.698 6.25C33.108 6.27 33.548 6.29 34.018 6.31C34.498 6.32 34.928 6.325 35.308 6.325H36.598C36.998 6.325 37.423 6.32 37.873 6.31C38.333 6.29 38.753 6.27 39.133 6.25C39.513 6.23 39.788 6.215 39.958 6.205C39.988 6.205 40.003 6.22 40.003 6.25C40.013 6.59 40.033 6.945 40.063 7.315C40.103 7.675 40.148 8.03 40.198 8.38C40.128 8.41 40.043 8.43 39.943 8.44C39.853 8.45 39.768 8.455 39.688 8.455C39.558 7.875 39.318 7.475 38.968 7.255C38.618 7.025 38.163 6.91 37.603 6.91H37.273C37.003 6.91 36.818 7.045 36.718 7.315C36.628 7.585 36.583 7.96 36.583 8.44L36.613 14.14ZM43.0889 14.17C43.0889 14.58 43.1239 14.88 43.1939 15.07C43.2639 15.26 43.3939 15.38 43.5839 15.43C43.7739 15.48 44.0439 15.515 44.3939 15.535C44.4339 15.575 44.4539 15.66 44.4539 15.79C44.4539 15.91 44.4339 15.99 44.3939 16.03C44.0639 16.02 43.7289 16.01 43.3889 16C43.0589 16 42.7489 16 42.4589 16C42.1689 16 41.8539 16 41.5139 16C41.1839 16.01 40.8489 16.02 40.5089 16.03C40.4589 15.98 40.4339 15.9 40.4339 15.79C40.4339 15.67 40.4589 15.585 40.5089 15.535C40.8589 15.515 41.1289 15.48 41.3189 15.43C41.5089 15.38 41.6389 15.26 41.7089 15.07C41.7789 14.88 41.8139 14.58 41.8139 14.17V8.155C41.8139 7.735 41.7789 7.435 41.7089 7.255C41.6389 7.065 41.5089 6.945 41.3189 6.895C41.1289 6.835 40.8589 6.8 40.5089 6.79C40.4589 6.74 40.4339 6.66 40.4339 6.55C40.4339 6.43 40.4589 6.345 40.5089 6.295C40.8589 6.305 41.2039 6.315 41.5439 6.325C41.8839 6.325 42.1839 6.325 42.4439 6.325C42.7139 6.325 43.0039 6.31 43.3139 6.28C43.6339 6.24 43.9689 6.22 44.3189 6.22C44.7889 6.22 45.2489 6.255 45.6989 6.325C46.1489 6.395 46.5539 6.6 46.9139 6.94C47.4439 7.44 47.7089 8.065 47.7089 8.815C47.7089 9.205 47.6339 9.55 47.4839 9.85C47.3439 10.15 47.1639 10.405 46.9439 10.615C46.7339 10.815 46.5139 10.98 46.2839 11.11C46.0639 11.24 45.8739 11.33 45.7139 11.38L47.6039 14.53C47.8039 14.85 48.0089 15.125 48.2189 15.355C48.4289 15.575 48.7039 15.685 49.0439 15.685C49.0739 15.745 49.0889 15.815 49.0889 15.895C49.0889 15.915 49.0889 15.94 49.0889 15.97C49.0889 16 49.0789 16.025 49.0589 16.045C48.9889 16.085 48.8939 16.11 48.7739 16.12C48.6539 16.14 48.5389 16.15 48.4289 16.15C47.9789 16.15 47.5889 16.015 47.2589 15.745C46.9389 15.475 46.6689 15.165 46.4489 14.815L44.8439 12.205C44.7739 12.085 44.6839 11.985 44.5739 11.905C44.4639 11.815 44.2939 11.75 44.0639 11.71C43.8339 11.66 43.5089 11.635 43.0889 11.635V14.17ZM44.3339 6.73C43.9839 6.73 43.7189 6.78 43.5389 6.88C43.3589 6.98 43.2389 7.105 43.1789 7.255C43.1189 7.395 43.0889 7.54 43.0889 7.69V11.125H43.8089C44.2989 11.125 44.7289 11.065 45.0989 10.945C45.4789 10.825 45.7789 10.6 45.9989 10.27C46.2189 9.93 46.3289 9.45 46.3289 8.83C46.3289 8.24 46.2239 7.795 46.0139 7.495C45.8139 7.195 45.5589 6.995 45.2489 6.895C44.9489 6.785 44.6439 6.73 44.3339 6.73ZM59.3552 11.065C59.3552 12.055 59.1602 12.935 58.7702 13.705C58.3802 14.465 57.8302 15.065 57.1202 15.505C56.4102 15.935 55.5752 16.15 54.6152 16.15C53.7652 16.15 52.9852 15.955 52.2752 15.565C51.5652 15.175 50.9952 14.62 50.5652 13.9C50.1352 13.18 49.9202 12.33 49.9202 11.35C49.9202 10.38 50.1002 9.5 50.4602 8.71C50.8302 7.92 51.3552 7.295 52.0352 6.835C52.7252 6.365 53.5552 6.13 54.5252 6.13C55.4252 6.13 56.2402 6.325 56.9702 6.715C57.7002 7.105 58.2802 7.67 58.7102 8.41C59.1402 9.14 59.3552 10.025 59.3552 11.065ZM54.3302 6.67C53.8402 6.67 53.3652 6.82 52.9052 7.12C52.4552 7.42 52.0852 7.895 51.7952 8.545C51.5052 9.195 51.3602 10.045 51.3602 11.095C51.3602 12.055 51.5302 12.87 51.8702 13.54C52.2102 14.21 52.6502 14.725 53.1902 15.085C53.7302 15.435 54.3052 15.61 54.9152 15.61C55.4852 15.61 55.9952 15.445 56.4452 15.115C56.9052 14.775 57.2652 14.285 57.5252 13.645C57.7852 13.005 57.9152 12.24 57.9152 11.35C57.9152 10.34 57.7502 9.49 57.4202 8.8C57.1002 8.1 56.6702 7.57 56.1302 7.21C55.5902 6.85 54.9902 6.67 54.3302 6.67ZM69.3323 14.17C69.3323 14.58 69.3673 14.88 69.4373 15.07C69.5173 15.26 69.6623 15.38 69.8723 15.43C70.0823 15.48 70.3873 15.515 70.7873 15.535C70.8273 15.575 70.8473 15.66 70.8473 15.79C70.8473 15.91 70.8273 15.99 70.7873 16.03C70.4173 16.02 70.0473 16.01 69.6773 16C69.3173 16 68.9923 16 68.7023 16C68.4123 16 68.0823 16 67.7123 16C67.3423 16.01 66.9723 16.02 66.6023 16.03C66.5523 15.98 66.5273 15.9 66.5273 15.79C66.5273 15.67 66.5523 15.585 66.6023 15.535C67.0023 15.515 67.3073 15.48 67.5173 15.43C67.7273 15.38 67.8673 15.26 67.9373 15.07C68.0173 14.88 68.0573 14.58 68.0573 14.17V12.265C68.0573 11.985 68.0373 11.78 67.9973 11.65C67.9573 11.51 67.8723 11.33 67.7423 11.11L65.7773 7.795C65.6073 7.505 65.4523 7.295 65.3123 7.165C65.1823 7.025 65.0423 6.93 64.8923 6.88C64.7523 6.83 64.5773 6.8 64.3673 6.79C64.3073 6.73 64.2773 6.64 64.2773 6.52C64.2773 6.42 64.3023 6.345 64.3523 6.295C64.5823 6.305 64.8223 6.315 65.0723 6.325C65.3223 6.325 65.5923 6.325 65.8823 6.325C66.1823 6.325 66.4723 6.325 66.7523 6.325C67.0423 6.315 67.3223 6.305 67.5923 6.295C67.6423 6.345 67.6673 6.43 67.6673 6.55C67.6673 6.66 67.6423 6.74 67.5923 6.79C67.3323 6.8 67.1423 6.825 67.0223 6.865C66.9023 6.905 66.8423 6.98 66.8423 7.09C66.8423 7.19 66.9123 7.365 67.0523 7.615L68.7923 10.69C68.8723 10.82 68.9323 10.885 68.9723 10.885C69.0123 10.885 69.0623 10.83 69.1223 10.72L70.7873 7.585C70.8773 7.405 70.9223 7.26 70.9223 7.15C70.9223 7.02 70.8573 6.93 70.7273 6.88C70.6073 6.83 70.4323 6.8 70.2023 6.79C70.1523 6.74 70.1273 6.66 70.1273 6.55C70.1273 6.43 70.1523 6.345 70.2023 6.295C70.4423 6.305 70.6873 6.315 70.9373 6.325C71.1873 6.325 71.3973 6.325 71.5673 6.325C71.7373 6.325 71.9323 6.325 72.1523 6.325C72.3823 6.315 72.6023 6.305 72.8123 6.295C72.8623 6.345 72.8873 6.43 72.8873 6.55C72.8873 6.66 72.8623 6.74 72.8123 6.79C72.4723 6.82 72.2023 6.895 72.0023 7.015C71.8023 7.125 71.5973 7.37 71.3873 7.75L69.5873 10.99C69.4673 11.21 69.3923 11.4 69.3623 11.56C69.3423 11.71 69.3323 11.9 69.3323 12.13V14.17ZM75.5146 14.215C75.5046 14.245 75.4746 14.325 75.4246 14.455C75.3746 14.575 75.3246 14.695 75.2746 14.815C75.2346 14.935 75.2146 15.01 75.2146 15.04C75.2146 15.24 75.3296 15.37 75.5596 15.43C75.7996 15.48 76.0446 15.515 76.2946 15.535C76.3346 15.575 76.3546 15.66 76.3546 15.79C76.3546 15.89 76.3346 15.96 76.2946 16H73.0396C73.0196 15.98 72.9946 15.95 72.9646 15.91C72.9446 15.87 72.9346 15.83 72.9346 15.79C72.9346 15.74 72.9446 15.69 72.9646 15.64C72.9946 15.59 73.0196 15.555 73.0396 15.535C73.3596 15.515 73.6396 15.45 73.8796 15.34C74.1296 15.22 74.3496 14.93 74.5396 14.47L77.9446 6.43C78.0446 6.43 78.1796 6.4 78.3496 6.34C78.5196 6.27 78.6596 6.2 78.7696 6.13L81.8596 14.71C81.9896 15.07 82.1746 15.295 82.4146 15.385C82.6546 15.465 82.9196 15.515 83.2096 15.535C83.2596 15.585 83.2846 15.67 83.2846 15.79C83.2846 15.88 83.2596 15.95 83.2096 16H79.5346C79.4946 15.96 79.4746 15.89 79.4746 15.79C79.4746 15.66 79.4946 15.575 79.5346 15.535C79.8546 15.515 80.1246 15.48 80.3446 15.43C80.5646 15.38 80.6746 15.265 80.6746 15.085C80.6746 15.055 80.6646 15 80.6446 14.92L79.7746 12.385H76.6096C76.4296 12.385 76.3046 12.405 76.2346 12.445C76.1746 12.475 76.1246 12.54 76.0846 12.64L75.5146 14.215ZM76.8796 11.755H79.5346L78.1246 7.675H78.0346L76.5046 11.56C76.4946 11.57 76.4896 11.59 76.4896 11.62C76.4896 11.71 76.6196 11.755 76.8796 11.755ZM86.5222 14.17C86.5222 14.58 86.5572 14.88 86.6272 15.07C86.6972 15.26 86.8272 15.38 87.0172 15.43C87.2072 15.48 87.4772 15.515 87.8272 15.535C87.8672 15.575 87.8872 15.66 87.8872 15.79C87.8872 15.89 87.8672 15.96 87.8272 16H85.8922C85.6022 16 85.2872 16 84.9472 16C84.6172 16.01 84.2822 16.02 83.9422 16.03C83.8922 15.98 83.8672 15.9 83.8672 15.79C83.8672 15.67 83.8922 15.585 83.9422 15.535C84.2922 15.515 84.5622 15.48 84.7522 15.43C84.9422 15.38 85.0722 15.26 85.1422 15.07C85.2122 14.88 85.2472 14.58 85.2472 14.17V8.155C85.2472 7.735 85.2122 7.435 85.1422 7.255C85.0722 7.065 84.9422 6.945 84.7522 6.895C84.5622 6.835 84.2922 6.8 83.9422 6.79C83.8922 6.74 83.8672 6.66 83.8672 6.55C83.8672 6.43 83.8922 6.345 83.9422 6.295C84.2822 6.305 84.6172 6.315 84.9472 6.325C85.2872 6.325 85.5972 6.325 85.8772 6.325C86.1472 6.325 86.4522 6.325 86.7922 6.325C87.1422 6.315 87.4872 6.305 87.8272 6.295C87.8672 6.335 87.8872 6.42 87.8872 6.55C87.8872 6.67 87.8672 6.75 87.8272 6.79C87.4772 6.8 87.2072 6.835 87.0172 6.895C86.8272 6.945 86.6972 7.065 86.6272 7.255C86.5572 7.435 86.5222 7.735 86.5222 8.155V10.795C86.7822 10.775 87.0022 10.715 87.1822 10.615C87.3722 10.515 87.5472 10.38 87.7072 10.21L90.1822 7.57C90.2922 7.46 90.3672 7.365 90.4072 7.285C90.4472 7.205 90.4672 7.14 90.4672 7.09C90.4672 6.98 90.3922 6.905 90.2422 6.865C90.1022 6.825 89.9422 6.8 89.7622 6.79C89.7122 6.74 89.6872 6.66 89.6872 6.55C89.6872 6.43 89.7122 6.345 89.7622 6.295C90.0422 6.305 90.3222 6.315 90.6022 6.325C90.8922 6.325 91.1772 6.325 91.4572 6.325C91.6972 6.325 91.9372 6.325 92.1772 6.325C92.4172 6.315 92.6522 6.305 92.8822 6.295C92.9322 6.345 92.9572 6.43 92.9572 6.55C92.9572 6.66 92.9322 6.74 92.8822 6.79C92.5822 6.81 92.2772 6.865 91.9672 6.955C91.6672 7.035 91.3422 7.26 90.9922 7.63L88.7872 9.895C88.5372 10.155 88.3872 10.33 88.3372 10.42C88.2872 10.51 88.2622 10.58 88.2622 10.63C88.2622 10.73 88.3272 10.855 88.4572 11.005L91.7422 14.905C91.9722 15.175 92.1922 15.345 92.4022 15.415C92.6222 15.475 92.8422 15.515 93.0622 15.535C93.1122 15.585 93.1372 15.67 93.1372 15.79C93.1372 15.9 93.1122 15.98 93.0622 16.03C92.8122 16.02 92.5622 16.01 92.3122 16C92.0622 16 91.8072 16 91.5472 16C91.3872 16 91.2472 16 91.1272 16C91.0172 16.01 90.8872 16.02 90.7372 16.03C90.6872 16.03 90.6622 16 90.6622 15.94C90.6522 15.82 90.5972 15.665 90.4972 15.475C90.3972 15.285 90.2722 15.095 90.1222 14.905L87.7672 11.935C87.6172 11.735 87.4372 11.595 87.2272 11.515C87.0172 11.425 86.7822 11.375 86.5222 11.365V14.17ZM95.9345 8.155V12.01C95.9345 12.33 95.9445 12.665 95.9645 13.015C95.9945 13.355 96.0645 13.685 96.1745 14.005C96.2845 14.315 96.4595 14.59 96.6995 14.83C96.9295 15.05 97.1945 15.225 97.4945 15.355C97.7945 15.475 98.1245 15.535 98.4845 15.535C99.1145 15.535 99.6145 15.425 99.9845 15.205C100.354 14.975 100.629 14.68 100.809 14.32C100.989 13.96 101.104 13.565 101.154 13.135C101.214 12.695 101.244 12.265 101.244 11.845V8.155C101.244 7.745 101.204 7.455 101.124 7.285C101.054 7.105 100.919 6.985 100.719 6.925C100.529 6.865 100.244 6.82 99.8645 6.79C99.8245 6.75 99.8045 6.67 99.8045 6.55C99.8045 6.42 99.8245 6.335 99.8645 6.295H103.134C103.174 6.335 103.194 6.42 103.194 6.55C103.194 6.67 103.174 6.75 103.134 6.79C102.834 6.82 102.599 6.865 102.429 6.925C102.269 6.985 102.154 7.105 102.084 7.285C102.014 7.465 101.979 7.755 101.979 8.155V11.575C101.979 12.245 101.924 12.86 101.814 13.42C101.704 13.97 101.509 14.45 101.229 14.86C100.949 15.27 100.559 15.59 100.059 15.82C99.5695 16.04 98.9395 16.15 98.1695 16.15C97.7795 16.15 97.3795 16.1 96.9695 16C96.5595 15.91 96.1795 15.735 95.8295 15.475C95.4795 15.215 95.1945 14.845 94.9745 14.365C94.7645 13.885 94.6595 13.265 94.6595 12.505V8.155C94.6595 7.735 94.6245 7.435 94.5545 7.255C94.4945 7.065 94.3795 6.945 94.2095 6.895C94.0395 6.835 93.8045 6.8 93.5045 6.79C93.4645 6.75 93.4445 6.67 93.4445 6.55C93.4445 6.42 93.4645 6.335 93.5045 6.295C93.7945 6.305 94.0895 6.315 94.3895 6.325C94.6995 6.325 94.9995 6.325 95.2895 6.325C95.5795 6.325 95.8995 6.325 96.2495 6.325C96.6095 6.315 96.9645 6.305 97.3145 6.295C97.3545 6.335 97.3745 6.42 97.3745 6.55C97.3745 6.67 97.3545 6.75 97.3145 6.79C96.9345 6.8 96.6445 6.835 96.4445 6.895C96.2445 6.945 96.1095 7.065 96.0395 7.255C95.9695 7.435 95.9345 7.735 95.9345 8.155ZM105.446 6.325C105.716 6.325 106.041 6.32 106.421 6.31C106.801 6.3 107.121 6.295 107.381 6.295C108.081 6.295 108.641 6.37 109.061 6.52C109.491 6.66 109.816 6.845 110.036 7.075C110.256 7.305 110.406 7.555 110.486 7.825C110.566 8.095 110.606 8.355 110.606 8.605C110.606 9.005 110.461 9.385 110.171 9.745C109.891 10.105 109.561 10.38 109.181 10.57V10.6C109.831 10.79 110.376 11.1 110.816 11.53C111.266 11.95 111.491 12.52 111.491 13.24C111.491 13.56 111.431 13.885 111.311 14.215C111.201 14.535 111.006 14.83 110.726 15.1C110.446 15.37 110.061 15.59 109.571 15.76C109.081 15.92 108.461 16 107.711 16H103.571C103.521 15.95 103.496 15.88 103.496 15.79C103.496 15.67 103.521 15.585 103.571 15.535C103.921 15.515 104.191 15.48 104.381 15.43C104.571 15.38 104.701 15.26 104.771 15.07C104.841 14.88 104.876 14.58 104.876 14.17V8.155C104.876 7.735 104.841 7.435 104.771 7.255C104.701 7.065 104.571 6.945 104.381 6.895C104.191 6.835 103.921 6.8 103.571 6.79C103.521 6.74 103.496 6.66 103.496 6.55C103.496 6.43 103.521 6.345 103.571 6.295C103.861 6.305 104.176 6.315 104.516 6.325C104.866 6.325 105.176 6.325 105.446 6.325ZM106.151 7.75V10.51H107.261C107.881 10.51 108.391 10.385 108.791 10.135C109.191 9.875 109.391 9.425 109.391 8.785C109.391 8.275 109.286 7.875 109.076 7.585C108.876 7.295 108.626 7.095 108.326 6.985C108.026 6.865 107.736 6.805 107.456 6.805C107.026 6.805 106.716 6.83 106.526 6.88C106.346 6.92 106.236 7.01 106.196 7.15C106.166 7.28 106.151 7.48 106.151 7.75ZM106.151 11.02V14.23C106.151 14.69 106.226 15.025 106.376 15.235C106.536 15.435 106.876 15.535 107.396 15.535C108.156 15.535 108.726 15.445 109.106 15.265C109.496 15.075 109.756 14.83 109.886 14.53C110.026 14.22 110.096 13.885 110.096 13.525C110.096 13.075 109.996 12.66 109.796 12.28C109.596 11.9 109.281 11.595 108.851 11.365C108.431 11.135 107.876 11.02 107.186 11.02H106.151ZM121.699 11.065C121.699 12.055 121.504 12.935 121.114 13.705C120.724 14.465 120.174 15.065 119.464 15.505C118.754 15.935 117.919 16.15 116.959 16.15C116.109 16.15 115.329 15.955 114.619 15.565C113.909 15.175 113.339 14.62 112.909 13.9C112.479 13.18 112.264 12.33 112.264 11.35C112.264 10.38 112.444 9.5 112.804 8.71C113.174 7.92 113.699 7.295 114.379 6.835C115.069 6.365 115.899 6.13 116.869 6.13C117.769 6.13 118.584 6.325 119.314 6.715C120.044 7.105 120.624 7.67 121.054 8.41C121.484 9.14 121.699 10.025 121.699 11.065ZM116.674 6.67C116.184 6.67 115.709 6.82 115.249 7.12C114.799 7.42 114.429 7.895 114.139 8.545C113.849 9.195 113.704 10.045 113.704 11.095C113.704 12.055 113.874 12.87 114.214 13.54C114.554 14.21 114.994 14.725 115.534 15.085C116.074 15.435 116.649 15.61 117.259 15.61C117.829 15.61 118.339 15.445 118.789 15.115C119.249 14.775 119.609 14.285 119.869 13.645C120.129 13.005 120.259 12.24 120.259 11.35C120.259 10.34 120.094 9.49 119.764 8.8C119.444 8.1 119.014 7.57 118.474 7.21C117.934 6.85 117.334 6.67 116.674 6.67ZM128.844 6.79C128.804 6.75 128.784 6.67 128.784 6.55C128.784 6.42 128.804 6.335 128.844 6.295C129.154 6.305 129.459 6.315 129.759 6.325C130.069 6.325 130.309 6.325 130.479 6.325C130.649 6.325 130.854 6.325 131.094 6.325C131.344 6.315 131.579 6.305 131.799 6.295C131.849 6.345 131.874 6.43 131.874 6.55C131.874 6.66 131.849 6.74 131.799 6.79C131.489 6.82 131.244 6.905 131.064 7.045C130.884 7.175 130.739 7.34 130.629 7.54C130.529 7.73 130.429 7.945 130.329 8.185L127.224 15.835C127.124 16.065 127.004 16.18 126.864 16.18C126.724 16.18 126.609 16.065 126.519 15.835L123.564 8.155C123.434 7.805 123.319 7.54 123.219 7.36C123.119 7.17 122.994 7.035 122.844 6.955C122.704 6.865 122.494 6.81 122.214 6.79C122.154 6.73 122.124 6.64 122.124 6.52C122.124 6.42 122.149 6.345 122.199 6.295C122.449 6.305 122.704 6.315 122.964 6.325C123.224 6.325 123.489 6.325 123.759 6.325C124.029 6.325 124.324 6.325 124.644 6.325C124.964 6.315 125.274 6.305 125.574 6.295C125.614 6.335 125.634 6.42 125.634 6.55C125.634 6.67 125.614 6.75 125.574 6.79C125.234 6.83 124.989 6.885 124.839 6.955C124.699 7.015 124.629 7.13 124.629 7.3C124.629 7.38 124.644 7.48 124.674 7.6C124.714 7.71 124.759 7.84 124.809 7.99L127.194 14.095H127.269L129.639 8.08C129.689 7.94 129.729 7.815 129.759 7.705C129.799 7.585 129.819 7.475 129.819 7.375C129.819 7.205 129.744 7.07 129.594 6.97C129.454 6.87 129.204 6.81 128.844 6.79ZM137.818 6.505C137.898 6.905 137.963 7.245 138.013 7.525C138.063 7.795 138.098 8.11 138.118 8.47C138.038 8.54 137.928 8.575 137.788 8.575C137.718 8.575 137.668 8.57 137.638 8.56C137.538 8.23 137.408 7.92 137.248 7.63C137.088 7.34 136.863 7.105 136.573 6.925C136.293 6.735 135.908 6.64 135.418 6.64C135.128 6.64 134.853 6.725 134.593 6.895C134.343 7.055 134.143 7.265 133.993 7.525C133.843 7.775 133.768 8.04 133.768 8.32C133.768 8.63 133.848 8.905 134.008 9.145C134.168 9.375 134.373 9.575 134.623 9.745C134.883 9.915 135.148 10.06 135.418 10.18C135.698 10.3 135.948 10.4 136.168 10.48C136.578 10.63 136.968 10.82 137.338 11.05C137.708 11.28 138.008 11.57 138.238 11.92C138.478 12.27 138.598 12.71 138.598 13.24C138.598 13.72 138.473 14.175 138.223 14.605C137.973 15.035 137.628 15.385 137.188 15.655C136.668 15.985 136.053 16.15 135.343 16.15C134.903 16.15 134.538 16.12 134.248 16.06C133.968 16.01 133.708 15.955 133.468 15.895C133.238 15.835 132.963 15.805 132.643 15.805C132.583 15.555 132.533 15.335 132.493 15.145C132.463 14.945 132.433 14.72 132.403 14.47C132.383 14.22 132.363 13.905 132.343 13.525C132.443 13.475 132.538 13.45 132.628 13.45C132.668 13.45 132.703 13.455 132.733 13.465C132.763 13.465 132.798 13.47 132.838 13.48C133.008 14.23 133.313 14.775 133.753 15.115C134.193 15.445 134.763 15.61 135.463 15.61C136.063 15.61 136.523 15.455 136.843 15.145C137.173 14.835 137.338 14.375 137.338 13.765C137.338 13.275 137.233 12.89 137.023 12.61C136.813 12.32 136.553 12.095 136.243 11.935C135.933 11.775 135.628 11.64 135.328 11.53C134.888 11.36 134.468 11.16 134.068 10.93C133.668 10.69 133.338 10.395 133.078 10.045C132.828 9.685 132.703 9.245 132.703 8.725C132.703 8.195 132.833 7.735 133.093 7.345C133.363 6.955 133.713 6.655 134.143 6.445C134.583 6.235 135.053 6.13 135.553 6.13C135.923 6.13 136.208 6.145 136.408 6.175C136.618 6.195 136.783 6.23 136.903 6.28C137.033 6.32 137.163 6.36 137.293 6.4C137.423 6.44 137.598 6.475 137.818 6.505ZM141.864 14.17C141.864 14.58 141.899 14.88 141.969 15.07C142.039 15.26 142.169 15.38 142.359 15.43C142.549 15.48 142.819 15.515 143.169 15.535C143.209 15.575 143.229 15.66 143.229 15.79C143.229 15.89 143.209 15.96 143.169 16H141.234C140.944 16 140.629 16 140.289 16C139.959 16.01 139.624 16.02 139.284 16.03C139.234 15.98 139.209 15.9 139.209 15.79C139.209 15.67 139.234 15.585 139.284 15.535C139.634 15.515 139.904 15.48 140.094 15.43C140.284 15.38 140.414 15.26 140.484 15.07C140.554 14.88 140.589 14.58 140.589 14.17V8.155C140.589 7.735 140.554 7.435 140.484 7.255C140.414 7.065 140.284 6.945 140.094 6.895C139.904 6.835 139.634 6.8 139.284 6.79C139.234 6.74 139.209 6.66 139.209 6.55C139.209 6.43 139.234 6.345 139.284 6.295C139.624 6.305 139.959 6.315 140.289 6.325C140.629 6.325 140.939 6.325 141.219 6.325C141.489 6.325 141.794 6.325 142.134 6.325C142.484 6.315 142.829 6.305 143.169 6.295C143.209 6.335 143.229 6.42 143.229 6.55C143.229 6.67 143.209 6.75 143.169 6.79C142.819 6.8 142.549 6.835 142.359 6.895C142.169 6.945 142.039 7.065 141.969 7.255C141.899 7.435 141.864 7.735 141.864 8.155V10.795C142.124 10.775 142.344 10.715 142.524 10.615C142.714 10.515 142.889 10.38 143.049 10.21L145.524 7.57C145.634 7.46 145.709 7.365 145.749 7.285C145.789 7.205 145.809 7.14 145.809 7.09C145.809 6.98 145.734 6.905 145.584 6.865C145.444 6.825 145.284 6.8 145.104 6.79C145.054 6.74 145.029 6.66 145.029 6.55C145.029 6.43 145.054 6.345 145.104 6.295C145.384 6.305 145.664 6.315 145.944 6.325C146.234 6.325 146.519 6.325 146.799 6.325C147.039 6.325 147.279 6.325 147.519 6.325C147.759 6.315 147.994 6.305 148.224 6.295C148.274 6.345 148.299 6.43 148.299 6.55C148.299 6.66 148.274 6.74 148.224 6.79C147.924 6.81 147.619 6.865 147.309 6.955C147.009 7.035 146.684 7.26 146.334 7.63L144.129 9.895C143.879 10.155 143.729 10.33 143.679 10.42C143.629 10.51 143.604 10.58 143.604 10.63C143.604 10.73 143.669 10.855 143.799 11.005L147.084 14.905C147.314 15.175 147.534 15.345 147.744 15.415C147.964 15.475 148.184 15.515 148.404 15.535C148.454 15.585 148.479 15.67 148.479 15.79C148.479 15.9 148.454 15.98 148.404 16.03C148.154 16.02 147.904 16.01 147.654 16C147.404 16 147.149 16 146.889 16C146.729 16 146.589 16 146.469 16C146.359 16.01 146.229 16.02 146.079 16.03C146.029 16.03 146.004 16 146.004 15.94C145.994 15.82 145.939 15.665 145.839 15.475C145.739 15.285 145.614 15.095 145.464 14.905L143.109 11.935C142.959 11.735 142.779 11.595 142.569 11.515C142.359 11.425 142.124 11.375 141.864 11.365V14.17ZM153.751 14.17C153.751 14.58 153.786 14.88 153.856 15.07C153.936 15.26 154.081 15.38 154.291 15.43C154.501 15.48 154.806 15.515 155.206 15.535C155.246 15.575 155.266 15.66 155.266 15.79C155.266 15.91 155.246 15.99 155.206 16.03C154.836 16.02 154.466 16.01 154.096 16C153.736 16 153.411 16 153.121 16C152.831 16 152.501 16 152.131 16C151.761 16.01 151.391 16.02 151.021 16.03C150.971 15.98 150.946 15.9 150.946 15.79C150.946 15.67 150.971 15.585 151.021 15.535C151.421 15.515 151.726 15.48 151.936 15.43C152.146 15.38 152.286 15.26 152.356 15.07C152.436 14.88 152.476 14.58 152.476 14.17V12.265C152.476 11.985 152.456 11.78 152.416 11.65C152.376 11.51 152.291 11.33 152.161 11.11L150.196 7.795C150.026 7.505 149.871 7.295 149.731 7.165C149.601 7.025 149.461 6.93 149.311 6.88C149.171 6.83 148.996 6.8 148.786 6.79C148.726 6.73 148.696 6.64 148.696 6.52C148.696 6.42 148.721 6.345 148.771 6.295C149.001 6.305 149.241 6.315 149.491 6.325C149.741 6.325 150.011 6.325 150.301 6.325C150.601 6.325 150.891 6.325 151.171 6.325C151.461 6.315 151.741 6.305 152.011 6.295C152.061 6.345 152.086 6.43 152.086 6.55C152.086 6.66 152.061 6.74 152.011 6.79C151.751 6.8 151.561 6.825 151.441 6.865C151.321 6.905 151.261 6.98 151.261 7.09C151.261 7.19 151.331 7.365 151.471 7.615L153.211 10.69C153.291 10.82 153.351 10.885 153.391 10.885C153.431 10.885 153.481 10.83 153.541 10.72L155.206 7.585C155.296 7.405 155.341 7.26 155.341 7.15C155.341 7.02 155.276 6.93 155.146 6.88C155.026 6.83 154.851 6.8 154.621 6.79C154.571 6.74 154.546 6.66 154.546 6.55C154.546 6.43 154.571 6.345 154.621 6.295C154.861 6.305 155.106 6.315 155.356 6.325C155.606 6.325 155.816 6.325 155.986 6.325C156.156 6.325 156.351 6.325 156.571 6.325C156.801 6.315 157.021 6.305 157.231 6.295C157.281 6.345 157.306 6.43 157.306 6.55C157.306 6.66 157.281 6.74 157.231 6.79C156.891 6.82 156.621 6.895 156.421 7.015C156.221 7.125 156.016 7.37 155.806 7.75L154.006 10.99C153.886 11.21 153.811 11.4 153.781 11.56C153.761 11.71 153.751 11.9 153.751 12.13V14.17ZM162.409 14.17C162.409 14.58 162.444 14.88 162.514 15.07C162.594 15.26 162.739 15.38 162.949 15.43C163.159 15.48 163.464 15.515 163.864 15.535C163.904 15.575 163.924 15.66 163.924 15.79C163.924 15.91 163.904 15.99 163.864 16.03C163.494 16.02 163.124 16.01 162.754 16C162.394 16 162.069 16 161.779 16C161.489 16 161.159 16 160.789 16C160.419 16.01 160.049 16.02 159.679 16.03C159.629 15.98 159.604 15.9 159.604 15.79C159.604 15.67 159.629 15.585 159.679 15.535C160.079 15.515 160.384 15.48 160.594 15.43C160.804 15.38 160.944 15.26 161.014 15.07C161.094 14.88 161.134 14.58 161.134 14.17V12.265C161.134 11.985 161.114 11.78 161.074 11.65C161.034 11.51 160.949 11.33 160.819 11.11L158.854 7.795C158.684 7.505 158.529 7.295 158.389 7.165C158.259 7.025 158.119 6.93 157.969 6.88C157.829 6.83 157.654 6.8 157.444 6.79C157.384 6.73 157.354 6.64 157.354 6.52C157.354 6.42 157.379 6.345 157.429 6.295C157.659 6.305 157.899 6.315 158.149 6.325C158.399 6.325 158.669 6.325 158.959 6.325C159.259 6.325 159.549 6.325 159.829 6.325C160.119 6.315 160.399 6.305 160.669 6.295C160.719 6.345 160.744 6.43 160.744 6.55C160.744 6.66 160.719 6.74 160.669 6.79C160.409 6.8 160.219 6.825 160.099 6.865C159.979 6.905 159.919 6.98 159.919 7.09C159.919 7.19 159.989 7.365 160.129 7.615L161.869 10.69C161.949 10.82 162.009 10.885 162.049 10.885C162.089 10.885 162.139 10.83 162.199 10.72L163.864 7.585C163.954 7.405 163.999 7.26 163.999 7.15C163.999 7.02 163.934 6.93 163.804 6.88C163.684 6.83 163.509 6.8 163.279 6.79C163.229 6.74 163.204 6.66 163.204 6.55C163.204 6.43 163.229 6.345 163.279 6.295C163.519 6.305 163.764 6.315 164.014 6.325C164.264 6.325 164.474 6.325 164.644 6.325C164.814 6.325 165.009 6.325 165.229 6.325C165.459 6.315 165.679 6.305 165.889 6.295C165.939 6.345 165.964 6.43 165.964 6.55C165.964 6.66 165.939 6.74 165.889 6.79C165.549 6.82 165.279 6.895 165.079 7.015C164.879 7.125 164.674 7.37 164.464 7.75L162.664 10.99C162.544 11.21 162.469 11.4 162.439 11.56C162.419 11.71 162.409 11.9 162.409 12.13V14.17Z" fill="black"/>
<path d="M2.3291 27.2725V27.4385C2.08496 27.4385 1.91569 27.5052 1.82129 27.6387C1.72689 27.7721 1.67969 28.0098 1.67969 28.3516V31.9209C1.67969 32.2627 1.72689 32.5003 1.82129 32.6338C1.91569 32.764 2.08496 32.8291 2.3291 32.8291V33H0.268555V32.8291C0.519206 32.8291 0.690104 32.764 0.78125 32.6338C0.872396 32.5036 0.917969 32.266 0.917969 31.9209V28.3516C0.917969 28 0.872396 27.7607 0.78125 27.6338C0.693359 27.5036 0.522461 27.4385 0.268555 27.4385V27.2725H2.3291ZM8.2582 27.4385V27.2725H9.98672V27.4385C9.71003 27.4385 9.51797 27.5036 9.41055 27.6338C9.30312 27.764 9.24941 28 9.24941 28.3418V33H9.07852L5.01602 28.0195V32.0381C5.01602 32.3213 5.07298 32.5247 5.18691 32.6484C5.3041 32.7689 5.49779 32.8291 5.76797 32.8291V33H4.02969V32.8291C4.30638 32.8291 4.49355 32.7575 4.59121 32.6143C4.68887 32.4678 4.7377 32.2122 4.7377 31.8477V28.498C4.7377 28.1367 4.67096 27.8779 4.5375 27.7217C4.40729 27.5622 4.19082 27.4678 3.88809 27.4385V27.2725H5.35781L8.95645 31.7305V28.3809C8.95645 28.0293 8.90599 27.7852 8.80508 27.6484C8.70742 27.5085 8.52513 27.4385 8.2582 27.4385ZM15.5154 27.5508H14.6463V31.9502C14.6463 32.2952 14.6886 32.528 14.7732 32.6484C14.8579 32.7689 15.0223 32.8291 15.2664 32.8291V33H13.2352V32.8291C13.4891 32.8291 13.6616 32.7607 13.7527 32.624C13.8439 32.484 13.8895 32.2497 13.8895 31.9209V27.5508H13.0594C12.6622 27.5508 12.3725 27.6143 12.1902 27.7412C12.0112 27.8682 11.9103 28.0781 11.8875 28.3711H11.7166V27.0576H11.8875C12.0405 27.2008 12.327 27.2725 12.7469 27.2725H15.7498C16.1827 27.2725 16.4855 27.2008 16.658 27.0576H16.8387V28.3711H16.7264C16.6548 28.0553 16.5262 27.8405 16.3406 27.7266C16.1583 27.6094 15.8833 27.5508 15.5154 27.5508ZM22.1721 29.4404H22.343V30.832H22.1721C22.1102 30.5879 22.0354 30.4349 21.9475 30.373C21.8596 30.3112 21.6675 30.2803 21.3713 30.2803H19.9504V32.3311C19.9504 32.4743 19.9813 32.5752 20.0432 32.6338C20.1083 32.6924 20.2173 32.7217 20.3703 32.7217H21.3713C21.7294 32.7217 21.9768 32.7021 22.1135 32.6631C22.2502 32.624 22.3658 32.5524 22.4602 32.4482C22.5546 32.3408 22.6555 32.1683 22.7629 31.9307H22.9338L22.6701 33H18.5441V32.8291C18.8013 32.8291 18.9738 32.764 19.0617 32.6338C19.1496 32.5003 19.1936 32.266 19.1936 31.9307V28.3516C19.1936 28.0033 19.148 27.764 19.0568 27.6338C18.9657 27.5036 18.7948 27.4385 18.5441 27.4385V27.2725H22.6701V28.2295H22.5627C22.5041 27.9561 22.4195 27.7754 22.3088 27.6875C22.2014 27.5964 21.9654 27.5508 21.6008 27.5508H19.9504V30.002H21.552C21.7701 30.002 21.9182 29.9629 21.9963 29.8848C22.0777 29.8066 22.1363 29.6585 22.1721 29.4404ZM26.6119 30.3486H26.148V31.9209C26.148 32.2594 26.1952 32.4954 26.2896 32.6289C26.3873 32.7624 26.5582 32.8291 26.8023 32.8291V33H24.7418V32.8291C24.9957 32.8291 25.1666 32.7624 25.2545 32.6289C25.3456 32.4954 25.3912 32.2594 25.3912 31.9209V28.332C25.3912 27.9935 25.3473 27.7607 25.2594 27.6338C25.1715 27.5036 24.999 27.4385 24.7418 27.4385V27.2725H27.0904C27.6699 27.2725 28.1321 27.4141 28.4771 27.6973C28.8255 27.9772 28.9996 28.3353 28.9996 28.7715C28.9996 29.4746 28.6057 29.9434 27.818 30.1777C27.9905 30.2884 28.1581 30.4414 28.3209 30.6367C28.4869 30.8288 28.7034 31.1494 28.9703 31.5986C29.2698 32.0967 29.5042 32.4238 29.6734 32.5801C29.8427 32.7331 30.0185 32.8161 30.2008 32.8291V33H29.0289C28.788 32.707 28.4967 32.2806 28.1549 31.7207C27.7903 31.1315 27.5038 30.7555 27.2955 30.5928C27.0904 30.43 26.8626 30.3486 26.6119 30.3486ZM26.7486 27.4922H26.148V30.1094H26.8512C27.2711 30.1094 27.5999 29.9889 27.8375 29.748C28.0784 29.5072 28.1988 29.1882 28.1988 28.791C28.1988 28.4036 28.0654 28.0911 27.7984 27.8535C27.5348 27.6126 27.1848 27.4922 26.7486 27.4922ZM31.8281 27.2725H33.918C34.6016 27.2725 35.1419 27.4238 35.5391 27.7266C35.9395 28.0293 36.1396 28.4199 36.1396 28.8984C36.1396 29.3737 35.9655 29.7399 35.6172 29.9971C35.2689 30.251 34.7692 30.3779 34.1182 30.3779C33.8675 30.3779 33.5745 30.3584 33.2393 30.3193V31.9209C33.2393 32.266 33.2848 32.5036 33.376 32.6338C33.4704 32.764 33.6413 32.8291 33.8887 32.8291V33H31.8281V32.8291C32.0755 32.8291 32.2448 32.7607 32.3359 32.624C32.4303 32.4873 32.4775 32.2594 32.4775 31.9404V28.3516C32.4775 28.0098 32.4303 27.7721 32.3359 27.6387C32.2448 27.5052 32.0755 27.4385 31.8281 27.4385V27.2725ZM33.9473 27.4922H33.2393V30.0605C33.4313 30.1257 33.6673 30.1582 33.9473 30.1582C34.377 30.1582 34.7155 30.0475 34.9629 29.8262C35.2135 29.6048 35.3389 29.3021 35.3389 28.918C35.3389 28.5046 35.2152 28.1644 34.9678 27.8975C34.7204 27.6273 34.3802 27.4922 33.9473 27.4922ZM39.7592 30.3486H39.2953V31.9209C39.2953 32.2594 39.3425 32.4954 39.4369 32.6289C39.5346 32.7624 39.7055 32.8291 39.9496 32.8291V33H37.8891V32.8291C38.143 32.8291 38.3139 32.7624 38.4018 32.6289C38.4929 32.4954 38.5385 32.2594 38.5385 31.9209V28.332C38.5385 27.9935 38.4945 27.7607 38.4066 27.6338C38.3187 27.5036 38.1462 27.4385 37.8891 27.4385V27.2725H40.2377C40.8171 27.2725 41.2794 27.4141 41.6244 27.6973C41.9727 27.9772 42.1469 28.3353 42.1469 28.7715C42.1469 29.4746 41.753 29.9434 40.9652 30.1777C41.1378 30.2884 41.3054 30.4414 41.4682 30.6367C41.6342 30.8288 41.8506 31.1494 42.1176 31.5986C42.4171 32.0967 42.6514 32.4238 42.8207 32.5801C42.99 32.7331 43.1658 32.8161 43.348 32.8291V33H42.1762C41.9353 32.707 41.6439 32.2806 41.3021 31.7207C40.9376 31.1315 40.6511 30.7555 40.4428 30.5928C40.2377 30.43 40.0098 30.3486 39.7592 30.3486ZM39.8959 27.4922H39.2953V30.1094H39.9984C40.4184 30.1094 40.7471 29.9889 40.9848 29.748C41.2256 29.5072 41.3461 29.1882 41.3461 28.791C41.3461 28.4036 41.2126 28.0911 40.9457 27.8535C40.682 27.6126 40.3321 27.4922 39.8959 27.4922ZM48.5643 29.4404H48.7352V30.832H48.5643C48.5024 30.5879 48.4275 30.4349 48.3396 30.373C48.2518 30.3112 48.0597 30.2803 47.7635 30.2803H46.3426V32.3311C46.3426 32.4743 46.3735 32.5752 46.4354 32.6338C46.5005 32.6924 46.6095 32.7217 46.7625 32.7217H47.7635C48.1216 32.7217 48.3689 32.7021 48.5057 32.6631C48.6424 32.624 48.7579 32.5524 48.8523 32.4482C48.9467 32.3408 49.0477 32.1683 49.1551 31.9307H49.326L49.0623 33H44.9363V32.8291C45.1935 32.8291 45.366 32.764 45.4539 32.6338C45.5418 32.5003 45.5857 32.266 45.5857 31.9307V28.3516C45.5857 28.0033 45.5402 27.764 45.449 27.6338C45.3579 27.5036 45.187 27.4385 44.9363 27.4385V27.2725H49.0623V28.2295H48.9549C48.8963 27.9561 48.8117 27.7754 48.701 27.6875C48.5936 27.5964 48.3576 27.5508 47.993 27.5508H46.3426V30.002H47.9441C48.1622 30.002 48.3104 29.9629 48.3885 29.8848C48.4699 29.8066 48.5285 29.6585 48.5643 29.4404ZM54.84 27.5508H53.9709V31.9502C53.9709 32.2952 54.0132 32.528 54.0979 32.6484C54.1825 32.7689 54.3469 32.8291 54.591 32.8291V33H52.5598V32.8291C52.8137 32.8291 52.9862 32.7607 53.0773 32.624C53.1685 32.484 53.2141 32.2497 53.2141 31.9209V27.5508H52.384C51.9868 27.5508 51.6971 27.6143 51.5148 27.7412C51.3358 27.8682 51.2349 28.0781 51.2121 28.3711H51.0412V27.0576H51.2121C51.3651 27.2008 51.6516 27.2725 52.0715 27.2725H55.0744C55.5074 27.2725 55.8101 27.2008 55.9826 27.0576H56.1633V28.3711H56.051C55.9794 28.0553 55.8508 27.8405 55.6652 27.7266C55.4829 27.6094 55.2079 27.5508 54.84 27.5508ZM61.4967 29.4404H61.6676V30.832H61.4967C61.4348 30.5879 61.36 30.4349 61.2721 30.373C61.1842 30.3112 60.9921 30.2803 60.6959 30.2803H59.275V32.3311C59.275 32.4743 59.3059 32.5752 59.3678 32.6338C59.4329 32.6924 59.5419 32.7217 59.6949 32.7217H60.6959C61.054 32.7217 61.3014 32.7021 61.4381 32.6631C61.5748 32.624 61.6904 32.5524 61.7848 32.4482C61.8792 32.3408 61.9801 32.1683 62.0875 31.9307H62.2584L61.9947 33H57.8688V32.8291C58.1259 32.8291 58.2984 32.764 58.3863 32.6338C58.4742 32.5003 58.5182 32.266 58.5182 31.9307V28.3516C58.5182 28.0033 58.4726 27.764 58.3814 27.6338C58.2903 27.5036 58.1194 27.4385 57.8688 27.4385V27.2725H61.9947V28.2295H61.8873C61.8287 27.9561 61.7441 27.7754 61.6334 27.6875C61.526 27.5964 61.29 27.5508 60.9254 27.5508H59.275V30.002H60.8766C61.0947 30.002 61.2428 29.9629 61.3209 29.8848C61.4023 29.8066 61.4609 29.6585 61.4967 29.4404ZM65.9365 30.3486H65.4727V31.9209C65.4727 32.2594 65.5199 32.4954 65.6143 32.6289C65.7119 32.7624 65.8828 32.8291 66.127 32.8291V33H64.0664V32.8291C64.3203 32.8291 64.4912 32.7624 64.5791 32.6289C64.6702 32.4954 64.7158 32.2594 64.7158 31.9209V28.332C64.7158 27.9935 64.6719 27.7607 64.584 27.6338C64.4961 27.5036 64.3236 27.4385 64.0664 27.4385V27.2725H66.415C66.9945 27.2725 67.4567 27.4141 67.8018 27.6973C68.1501 27.9772 68.3242 28.3353 68.3242 28.7715C68.3242 29.4746 67.9303 29.9434 67.1426 30.1777C67.3151 30.2884 67.4827 30.4414 67.6455 30.6367C67.8115 30.8288 68.028 31.1494 68.2949 31.5986C68.5944 32.0967 68.8288 32.4238 68.998 32.5801C69.1673 32.7331 69.3431 32.8161 69.5254 32.8291V33H68.3535C68.1126 32.707 67.8213 32.2806 67.4795 31.7207C67.1149 31.1315 66.8285 30.7555 66.6201 30.5928C66.415 30.43 66.1872 30.3486 65.9365 30.3486ZM66.0732 27.4922H65.4727V30.1094H66.1758C66.5957 30.1094 66.9245 29.9889 67.1621 29.748C67.403 29.5072 67.5234 29.1882 67.5234 28.791C67.5234 28.4036 67.39 28.0911 67.123 27.8535C66.8594 27.6126 66.5094 27.4922 66.0732 27.4922ZM77.077 33V32.8291C77.4057 32.8291 77.5701 32.7152 77.5701 32.4873C77.5701 32.4222 77.5555 32.349 77.5262 32.2676L77.0037 30.6807H75.158L74.7674 31.8281C74.6697 32.1178 74.6209 32.3278 74.6209 32.458C74.6209 32.6989 74.7723 32.8226 75.075 32.8291V33H73.5955V32.8291C73.8071 32.7998 73.9715 32.7298 74.0887 32.6191C74.2059 32.5085 74.3247 32.279 74.4451 31.9307L76.0271 27.209H76.618L78.2781 32.1406C78.3758 32.4303 78.4767 32.6175 78.5809 32.7021C78.6883 32.7868 78.8592 32.8291 79.0936 32.8291V33H77.077ZM75.2654 30.3291H76.8768L76.0662 27.9023L75.2654 30.3291ZM84.9836 27.4385V27.2725H86.7121V27.4385C86.4354 27.4385 86.2434 27.5036 86.1359 27.6338C86.0285 27.764 85.9748 28 85.9748 28.3418V33H85.8039L81.7414 28.0195V32.0381C81.7414 32.3213 81.7984 32.5247 81.9123 32.6484C82.0295 32.7689 82.2232 32.8291 82.4934 32.8291V33H80.7551V32.8291C81.0318 32.8291 81.2189 32.7575 81.3166 32.6143C81.4143 32.4678 81.4631 32.2122 81.4631 31.8477V28.498C81.4631 28.1367 81.3964 27.8779 81.2629 27.7217C81.1327 27.5622 80.9162 27.4678 80.6135 27.4385V27.2725H82.0832L85.6818 31.7305V28.3809C85.6818 28.0293 85.6314 27.7852 85.5305 27.6484C85.4328 27.5085 85.2505 27.4385 84.9836 27.4385ZM88.5006 33V32.8291C88.748 32.8291 88.9189 32.7624 89.0133 32.6289C89.1077 32.4922 89.1549 32.2562 89.1549 31.9209V28.3516C89.1549 28.0098 89.1077 27.7721 89.0133 27.6387C88.9189 27.5052 88.748 27.4385 88.5006 27.4385V27.2725H91.152C92.1318 27.2725 92.9146 27.5508 93.5006 28.1074C94.0898 28.6641 94.3844 29.3721 94.3844 30.2314C94.3844 31.0745 94.1061 31.7467 93.5494 32.248C92.9928 32.7493 92.218 33 91.2252 33H88.5006ZM91.0006 27.4922H89.9117V31.7207C89.9117 32.1276 89.9605 32.4059 90.0582 32.5557C90.1559 32.7054 90.3512 32.7803 90.6441 32.7803H91.235C91.9381 32.7803 92.4915 32.554 92.8951 32.1016C93.2988 31.6458 93.5006 31.0257 93.5006 30.2412C93.5006 29.4079 93.2792 28.7422 92.8365 28.2441C92.3971 27.7428 91.7851 27.4922 91.0006 27.4922ZM102.165 27.5508H101.296V31.9502C101.296 32.2952 101.339 32.528 101.423 32.6484C101.508 32.7689 101.672 32.8291 101.916 32.8291V33H99.8852V32.8291C100.139 32.8291 100.312 32.7607 100.403 32.624C100.494 32.484 100.539 32.2497 100.539 31.9209V27.5508H99.7094C99.3122 27.5508 99.0225 27.6143 98.8402 27.7412C98.6612 27.8682 98.5603 28.0781 98.5375 28.3711H98.3666V27.0576H98.5375C98.6905 27.2008 98.977 27.2725 99.3969 27.2725H102.4C102.833 27.2725 103.135 27.2008 103.308 27.0576H103.489V28.3711H103.376C103.305 28.0553 103.176 27.8405 102.991 27.7266C102.808 27.6094 102.533 27.5508 102.165 27.5508ZM107.064 30.3486H106.6V31.9209C106.6 32.2594 106.648 32.4954 106.742 32.6289C106.84 32.7624 107.011 32.8291 107.255 32.8291V33H105.194V32.8291C105.448 32.8291 105.619 32.7624 105.707 32.6289C105.798 32.4954 105.844 32.2594 105.844 31.9209V28.332C105.844 27.9935 105.8 27.7607 105.712 27.6338C105.624 27.5036 105.451 27.4385 105.194 27.4385V27.2725H107.543C108.122 27.2725 108.584 27.4141 108.929 27.6973C109.278 27.9772 109.452 28.3353 109.452 28.7715C109.452 29.4746 109.058 29.9434 108.27 30.1777C108.443 30.2884 108.61 30.4414 108.773 30.6367C108.939 30.8288 109.156 31.1494 109.423 31.5986C109.722 32.0967 109.957 32.4238 110.126 32.5801C110.295 32.7331 110.471 32.8161 110.653 32.8291V33H109.481C109.24 32.707 108.949 32.2806 108.607 31.7207C108.243 31.1315 107.956 30.7555 107.748 30.5928C107.543 30.43 107.315 30.3486 107.064 30.3486ZM107.201 27.4922H106.6V30.1094H107.304C107.723 30.1094 108.052 29.9889 108.29 29.748C108.531 29.5072 108.651 29.1882 108.651 28.791C108.651 28.4036 108.518 28.0911 108.251 27.8535C107.987 27.6126 107.637 27.4922 107.201 27.4922ZM115.601 33V32.8291C115.93 32.8291 116.094 32.7152 116.094 32.4873C116.094 32.4222 116.079 32.349 116.05 32.2676L115.528 30.6807H113.682L113.291 31.8281C113.194 32.1178 113.145 32.3278 113.145 32.458C113.145 32.6989 113.296 32.8226 113.599 32.8291V33H112.119V32.8291C112.331 32.7998 112.495 32.7298 112.613 32.6191C112.73 32.5085 112.849 32.279 112.969 31.9307L114.551 27.209H115.142L116.802 32.1406C116.9 32.4303 117.001 32.6175 117.105 32.7021C117.212 32.7868 117.383 32.8291 117.617 32.8291V33H115.601ZM113.789 30.3291H115.401L114.59 27.9023L113.789 30.3291ZM123.507 27.4385V27.2725H125.236V27.4385C124.959 27.4385 124.767 27.5036 124.66 27.6338C124.552 27.764 124.499 28 124.499 28.3418V33H124.328L120.265 28.0195V32.0381C120.265 32.3213 120.322 32.5247 120.436 32.6484C120.553 32.7689 120.747 32.8291 121.017 32.8291V33H119.279V32.8291C119.556 32.8291 119.743 32.7575 119.84 32.6143C119.938 32.4678 119.987 32.2122 119.987 31.8477V28.498C119.987 28.1367 119.92 27.8779 119.787 27.7217C119.657 27.5622 119.44 27.4678 119.137 27.4385V27.2725H120.607L124.206 31.7305V28.3809C124.206 28.0293 124.155 27.7852 124.054 27.6484C123.957 27.5085 123.774 27.4385 123.507 27.4385ZM130.115 27.1895H130.276V28.5322H130.105C130.066 28.1611 129.931 27.8714 129.7 27.6631C129.472 27.4548 129.184 27.3506 128.836 27.3506C128.527 27.3506 128.278 27.4287 128.089 27.585C127.9 27.7412 127.806 27.9495 127.806 28.21C127.806 28.4508 127.884 28.6706 128.04 28.8691C128.196 29.0677 128.535 29.3232 129.056 29.6357C129.661 29.9971 130.068 30.3128 130.276 30.583C130.485 30.8532 130.589 31.1624 130.589 31.5107C130.589 31.96 130.429 32.3441 130.11 32.6631C129.791 32.9821 129.407 33.1416 128.958 33.1416C128.698 33.1416 128.366 33.07 127.962 32.9268C127.796 32.8682 127.69 32.8389 127.645 32.8389C127.55 32.8389 127.477 32.9121 127.425 33.0586H127.259V31.5107H127.425C127.428 31.9372 127.566 32.279 127.84 32.5361C128.117 32.7933 128.439 32.9219 128.807 32.9219C129.155 32.9219 129.433 32.8291 129.642 32.6436C129.853 32.458 129.959 32.2106 129.959 31.9014C129.959 31.6702 129.873 31.4489 129.7 31.2373C129.528 31.0257 129.168 30.7523 128.621 30.417C128.175 30.1403 127.877 29.9222 127.728 29.7627C127.578 29.6032 127.467 29.429 127.396 29.2402C127.324 29.0482 127.288 28.8382 127.288 28.6104C127.288 28.1709 127.431 27.8145 127.718 27.541C128.007 27.2676 128.383 27.1309 128.846 27.1309C129.1 27.1309 129.376 27.1813 129.676 27.2822C129.816 27.3278 129.913 27.3506 129.969 27.3506C130.014 27.3506 130.045 27.3408 130.062 27.3213C130.078 27.3018 130.096 27.2578 130.115 27.1895ZM136.747 31.75H136.918L136.567 33H132.416V32.8291C132.651 32.8291 132.817 32.7559 132.914 32.6094C133.015 32.4629 133.066 32.2171 133.066 31.8721V28.2686C133.066 27.9593 133.019 27.7445 132.924 27.624C132.833 27.5003 132.664 27.4385 132.416 27.4385V27.2725H134.467V27.4385C134.239 27.4385 134.075 27.5085 133.974 27.6484C133.876 27.7884 133.828 28.0195 133.828 28.3418V32.1699C133.828 32.3815 133.871 32.5264 133.959 32.6045C134.051 32.6826 134.223 32.7217 134.477 32.7217H135.615C135.966 32.7217 136.212 32.6615 136.352 32.541C136.492 32.4173 136.624 32.1536 136.747 31.75ZM141.788 33V32.8291C142.117 32.8291 142.281 32.7152 142.281 32.4873C142.281 32.4222 142.266 32.349 142.237 32.2676L141.715 30.6807H139.869L139.478 31.8281C139.381 32.1178 139.332 32.3278 139.332 32.458C139.332 32.6989 139.483 32.8226 139.786 32.8291V33H138.306V32.8291C138.518 32.7998 138.682 32.7298 138.8 32.6191C138.917 32.5085 139.036 32.279 139.156 31.9307L140.738 27.209H141.329L142.989 32.1406C143.087 32.4303 143.188 32.6175 143.292 32.7021C143.399 32.7868 143.57 32.8291 143.804 32.8291V33H141.788ZM139.976 30.3291H141.588L140.777 27.9023L139.976 30.3291ZM148.381 27.5508H147.512V31.9502C147.512 32.2952 147.554 32.528 147.639 32.6484C147.724 32.7689 147.888 32.8291 148.132 32.8291V33H146.101V32.8291C146.355 32.8291 146.527 32.7607 146.618 32.624C146.71 32.484 146.755 32.2497 146.755 31.9209V27.5508H145.925C145.528 27.5508 145.238 27.6143 145.056 27.7412C144.877 27.8682 144.776 28.0781 144.753 28.3711H144.582V27.0576H144.753C144.906 27.2008 145.193 27.2725 145.613 27.2725H148.615C149.048 27.2725 149.351 27.2008 149.524 27.0576H149.704V28.3711H149.592C149.52 28.0553 149.392 27.8405 149.206 27.7266C149.024 27.6094 148.749 27.5508 148.381 27.5508ZM151.307 30.1094C151.307 29.2598 151.6 28.5518 152.186 27.9854C152.772 27.4157 153.503 27.1309 154.379 27.1309C155.228 27.1309 155.946 27.4189 156.532 27.9951C157.121 28.5713 157.416 29.276 157.416 30.1094C157.416 30.959 157.119 31.6768 156.527 32.2627C155.934 32.8486 155.21 33.1416 154.354 33.1416C153.501 33.1416 152.78 32.8486 152.191 32.2627C151.602 31.6768 151.307 30.959 151.307 30.1094ZM152.186 30.1191C152.186 30.9557 152.385 31.6328 152.782 32.1504C153.179 32.6647 153.7 32.9219 154.344 32.9219C154.995 32.9219 155.523 32.6582 155.926 32.1309C156.333 31.6035 156.537 30.946 156.537 30.1582C156.537 29.3118 156.338 28.6331 155.941 28.1221C155.544 27.6077 155.03 27.3506 154.398 27.3506C153.727 27.3506 153.19 27.6029 152.787 28.1074C152.386 28.612 152.186 29.2826 152.186 30.1191ZM161.323 30.3486H160.859V31.9209C160.859 32.2594 160.907 32.4954 161.001 32.6289C161.099 32.7624 161.27 32.8291 161.514 32.8291V33H159.453V32.8291C159.707 32.8291 159.878 32.7624 159.966 32.6289C160.057 32.4954 160.103 32.2594 160.103 31.9209V28.332C160.103 27.9935 160.059 27.7607 159.971 27.6338C159.883 27.5036 159.71 27.4385 159.453 27.4385V27.2725H161.802C162.381 27.2725 162.843 27.4141 163.188 27.6973C163.537 27.9772 163.711 28.3353 163.711 28.7715C163.711 29.4746 163.317 29.9434 162.529 30.1777C162.702 30.2884 162.869 30.4414 163.032 30.6367C163.198 30.8288 163.415 31.1494 163.682 31.5986C163.981 32.0967 164.215 32.4238 164.385 32.5801C164.554 32.7331 164.73 32.8161 164.912 32.8291V33H163.74C163.499 32.707 163.208 32.2806 162.866 31.7207C162.502 31.1315 162.215 30.7555 162.007 30.5928C161.802 30.43 161.574 30.3486 161.323 30.3486ZM161.46 27.4922H160.859V30.1094H161.562C161.982 30.1094 162.311 29.9889 162.549 29.748C162.79 29.5072 162.91 29.1882 162.91 28.791C162.91 28.4036 162.777 28.0911 162.51 27.8535C162.246 27.6126 161.896 27.4922 161.46 27.4922Z" fill="black"/>
</svg>
